<svg width="255" height="257" viewBox="0 0 255 257" fill="none" xmlns="http://www.w3.org/2000/svg">
<mask id="path-1-inside-1_716_137" fill="white">
<path fill-rule="evenodd" clip-rule="evenodd" d="M126.122 256.667C196.999 256.667 254.455 199.21 254.455 128.333C254.455 57.4568 196.999 0 126.122 0C63.3938 0 11.1771 45.0052 0 104.487C20.3872 127.207 32.7887 157.239 32.7887 190.167C32.7887 198.315 32.0293 206.286 30.5774 214.013C54.0726 240.196 88.1738 256.667 126.122 256.667Z"/>
</mask>
<path fill-rule="evenodd" clip-rule="evenodd" d="M126.122 256.667C196.999 256.667 254.455 199.21 254.455 128.333C254.455 57.4568 196.999 0 126.122 0C63.3938 0 11.1771 45.0052 0 104.487C20.3872 127.207 32.7887 157.239 32.7887 190.167C32.7887 198.315 32.0293 206.286 30.5774 214.013C54.0726 240.196 88.1738 256.667 126.122 256.667Z" fill="white"/>
<path d="M0 104.487L-1.9656 104.118L-2.14792 105.088L-1.48855 105.823L0 104.487ZM30.5774 214.013L28.6118 213.643L28.4295 214.614L29.0888 215.349L30.5774 214.013ZM252.455 128.333C252.455 198.105 195.894 254.667 126.122 254.667V258.667C198.103 258.667 256.455 200.314 256.455 128.333H252.455ZM126.122 2C195.894 2 252.455 58.5614 252.455 128.333H256.455C256.455 56.3522 198.103 -2 126.122 -2V2ZM1.9656 104.857C12.9683 46.3026 64.3736 2 126.122 2V-2C62.414 -2 9.38591 43.7077 -1.9656 104.118L1.9656 104.857ZM-1.48855 105.823C18.5821 128.19 30.7887 157.75 30.7887 190.167H34.7887C34.7887 156.727 22.1922 126.224 1.48855 103.152L-1.48855 105.823ZM30.7887 190.167C30.7887 198.191 30.0409 206.038 28.6118 213.643L32.543 214.382C34.0177 206.534 34.7887 198.44 34.7887 190.167H30.7887ZM126.122 254.667C88.7654 254.667 55.1978 238.455 32.0659 212.677L29.0888 215.349C52.9473 241.936 87.5822 258.667 126.122 258.667V254.667Z" fill="white" mask="url(#path-1-inside-1_716_137)"/>
</svg>
