<svg width="601" height="600" viewBox="0 0 601 600" fill="none" xmlns="http://www.w3.org/2000/svg">
<path d="M302 334.667V600M601 301L334.333 301M302 0V268M267.667 301H1M302 280V301M302 301V320M302 301H321M302 301H281" stroke="white" stroke-width="2"/>
<path d="M124.252 123.499L122.757 117.922L118.675 122.005L124.252 123.499ZM71.5026 70.7499L71.8561 70.3964L71.7097 70.2499L71.5026 70.2499L71.5026 70.7499ZM121.423 119.964L71.8561 70.3964L71.149 71.1035L120.716 120.671L121.423 119.964ZM71.5026 70.2499L0.999993 70.2509L1.00001 71.2509L71.5026 71.2499L71.5026 70.2499Z" fill="white"/>
<path d="M1.16372 55.6464L15.6465 41.1637M16 48.5C16 52.6421 12.6421 56 8.5 56C4.35786 56 1 52.6421 1 48.5C1 44.3579 4.35786 41 8.5 41C12.6421 41 16 44.3579 16 48.5Z" stroke="white"/>
<path d="M37.0625 42.1367V54.8633H35.1113V44.0703H35.041L32 46.0566V44.2109L35.1641 42.1367H37.0625Z" fill="white"/>
<path d="M40.7363 54.8633L46.4141 43.8945V43.7891H39.8574V42.1367H48.418V43.8594L42.7578 54.8633H40.7363Z" fill="white"/>
</svg>
