<svg width="563" height="562" viewBox="0 0 563 562" fill="none" xmlns="http://www.w3.org/2000/svg">
<path d="M321.662 12.7266V3.18164H323.473V4.74609H323.578C323.982 3.68262 324.923 3.05859 326.18 3.05859C327.454 3.05859 328.342 3.68262 328.746 4.74609H328.852C329.3 3.71777 330.337 3.05859 331.717 3.05859C333.439 3.05859 334.661 4.13965 334.67 6.32812V12.7266H332.789V6.50391C332.789 5.21191 331.98 4.67578 330.996 4.67578C329.792 4.67578 329.098 5.50195 329.098 6.64453V12.7266H327.234V6.39844C327.234 5.35254 326.522 4.67578 325.494 4.67578C324.439 4.67578 323.543 5.55469 323.543 6.83789V12.7266H321.662Z" fill="white"/>
<path d="M306.387 12.7266V3.18164H308.197V4.74609H308.303C308.707 3.68262 309.647 3.05859 310.904 3.05859C312.179 3.05859 313.066 3.68262 313.471 4.74609H313.576C314.024 3.71777 315.061 3.05859 316.441 3.05859C318.164 3.05859 319.386 4.13965 319.395 6.32812V12.7266H317.514V6.50391C317.514 5.21191 316.705 4.67578 315.721 4.67578C314.517 4.67578 313.822 5.50195 313.822 6.64453V12.7266H311.959V6.39844C311.959 5.35254 311.247 4.67578 310.219 4.67578C309.164 4.67578 308.268 5.55469 308.268 6.83789V12.7266H306.387Z" fill="white"/>
<path d="M296.736 12.7266L302.414 1.75781V1.65234H295.857V0H304.418V1.72266L298.758 12.7266H296.736Z" fill="white"/>
<path d="M293.062 0V12.7266H291.111V1.93359H291.041L288 3.91992V2.07422L291.164 0H293.062Z" fill="white"/>
<path d="M12.7266 302.338H3.18164V300.527H4.74609V300.422C3.68262 300.018 3.05859 299.077 3.05859 297.82C3.05859 296.546 3.68262 295.658 4.74609 295.254V295.148C3.71777 294.7 3.05859 293.663 3.05859 292.283C3.05859 290.561 4.13965 289.339 6.32812 289.33H12.7266V291.211H6.5039C5.21191 291.211 4.67578 292.02 4.67578 293.004C4.67578 294.208 5.50195 294.902 6.64453 294.902H12.7266V296.766H6.39844C5.35254 296.766 4.67578 297.478 4.67578 298.506C4.67578 299.561 5.55469 300.457 6.83789 300.457H12.7266V302.338Z" fill="white"/>
<path d="M12.7266 317.613H3.18164L3.18164 315.803H4.74609V315.697C3.68262 315.293 3.05859 314.353 3.05859 313.096C3.05859 311.821 3.68262 310.934 4.74609 310.529V310.424C3.71777 309.976 3.05859 308.938 3.05859 307.559C3.05859 305.836 4.13965 304.614 6.32812 304.605H12.7266V306.486H6.50391C5.21191 306.486 4.67578 307.295 4.67578 308.279C4.67578 309.483 5.50195 310.178 6.64453 310.178H12.7266V312.041H6.39844C5.35254 312.041 4.67578 312.753 4.67578 313.781C4.67578 314.836 5.55469 315.732 6.83789 315.732H12.7266V317.613Z" fill="white"/>
<path d="M12.7266 327.264L1.75781 321.586H1.65234L1.65234 328.143H3.74193e-07L0 319.582H1.72266L12.7266 325.242V327.264Z" fill="white"/>
<path d="M4.96362e-07 330.937H12.7266V332.889H1.93359V332.959L3.91992 336H2.07422L5.79346e-07 332.836L4.96362e-07 330.937Z" fill="white"/>
<path fill-rule="evenodd" clip-rule="evenodd" d="M67 29.8867L62 27L67 24.1132V26.5H557V24.1132L562 27L557 29.8867V27.5H67V29.8867Z" fill="white"/>
<path fill-rule="evenodd" clip-rule="evenodd" d="M62 42V12H63V42H62Z" fill="white"/>
<path fill-rule="evenodd" clip-rule="evenodd" d="M562 42V12H563V42H562Z" fill="white"/>
<path fill-rule="evenodd" clip-rule="evenodd" d="M29.8868 557L27 562L24.1133 557H26.5L26.5 67H24.1132L27 62L29.8867 67H27.5L27.5 557H29.8868Z" fill="white"/>
<path fill-rule="evenodd" clip-rule="evenodd" d="M42 562H12V561H42V562Z" fill="white"/>
<path fill-rule="evenodd" clip-rule="evenodd" d="M42 62H12V61H42V62Z" fill="white"/>
<path fill-rule="evenodd" clip-rule="evenodd" d="M63 12V14.9858H62V12H63ZM562 14.9891V12H563V14.9891H562ZM63 20.9587V26.9315H62V20.9587H63ZM562 26.9457V20.9674H563V26.9457H562ZM63 32.9043V38.8772H62V32.9043H63ZM562 38.9022V32.9239H563V38.9022H562ZM63 44.85V50.8229H62V44.85H63ZM562 50.8587V44.8804H563V50.8587H562ZM63 56.7957L63 62.7686H62L62 56.7957H63ZM562 62.8152V56.837H563V62.8152H562ZM63 68.7414V74.7142H62V68.7414H63ZM562 74.7717V68.7935H563V74.7717H562ZM63 80.6871V86.6599H62V80.6871H63ZM562 86.7283V80.75H563V86.7283H562ZM63 92.6328V98.6056H62V92.6328H63ZM562 98.6848V92.7065H563V98.6848H562ZM63 104.578V110.551H62V104.578H63ZM562 110.641V104.663H563V110.641H562ZM63 116.524V122.497H62V116.524H63ZM562 122.598V116.62H563V122.598H562ZM63 128.47V134.443H62V128.47H63ZM562 134.554V128.576H563V134.554H562ZM63 140.415V146.388H62V140.415H63ZM562 146.511V140.533H563V146.511H562ZM63 152.361V158.334H62V152.361H63ZM562 158.467V152.489H563V158.467H562ZM63 164.307V170.28H62V164.307H63ZM562 170.424V164.446H563V170.424H562ZM63 176.253V182.225H62V176.253H63ZM562 182.38V176.402H563V182.38H562ZM63 188.198V194.171H62V188.198H63ZM562 194.337V188.359H563V194.337H562ZM63 200.144V206.117H62V200.144H63ZM562 206.293V200.315H563V206.293H562ZM63 212.09V218.062H62V212.09H63ZM562 218.25V212.272H563V218.25H562ZM63 224.035V230.008H62V224.035H63ZM562 230.206V224.228H563V230.206H562ZM63 235.981L63 241.954H62L62 235.981H63ZM562 242.163V236.185H563V242.163H562ZM63 247.927V253.899H62V247.927H63ZM562 254.12V248.141H563V254.12H562ZM63 259.872V265.845H62V259.872H63ZM562 266.076V260.098H563V266.076H562ZM63 271.818V277.791H62V271.818H63ZM562 278.033V272.054H563V278.033H562ZM63 283.764V289.736H62V283.764H63ZM562 289.989V284.011H563V289.989H562ZM63 295.709V301.682H62V295.709H63ZM562 301.946V295.967H563V301.946H562ZM63 307.655V313.628H62V307.655H63ZM562 313.902V307.924H563V313.902H562ZM63 319.601V325.573H62V319.601H63ZM562 325.859V319.88H563V325.859H562ZM63 331.546L63 337.519H62L62 331.546H63ZM562 337.815V331.837H563V337.815H562ZM63 343.492V349.465H62V343.492H63ZM562 349.772V343.794H563V349.772H562ZM63 355.438V361.41H62V355.438H63ZM562 361.728V355.75H563V361.728H562ZM63 367.383V373.356H62V367.383H63ZM562 373.685V367.707H563V373.685H562ZM63 379.329V385.302H62V379.329H63ZM562 385.641V379.663H563V385.641H562ZM63 391.275V397.247H62V391.275H63ZM562 397.598V391.62H563V397.598H562ZM63 403.22V409.193H62V403.22H63ZM562 409.555V403.576H563V409.555H562ZM63 415.166V421.139H62V415.166H63ZM562 421.511V415.533H563V421.511H562ZM63 427.111V433.084H62V427.111H63ZM562 433.468V427.489H563V433.468H562ZM63 439.057V445.03H62V439.057H63ZM562 445.424V439.446H563V445.424H562ZM63 451.003V456.976H62V451.003H63ZM562 457.381V451.402H563V457.381H562ZM63 462.948V468.921H62V462.948H63ZM562 469.337V463.359H563V469.337H562ZM63 474.894V480.867H62V474.894H63ZM562 481.294V475.316H563V481.294H562ZM63 486.84V492.812H62V486.84H63ZM562 493.25V487.272H563V493.25H562ZM63 498.785V504.758H62V498.785H63ZM562 505.207V499.229H563V505.207H562ZM63 510.731L63 516.704H62L62 510.731H63ZM562 517.163V511.185H563V517.163H562ZM63 522.677V528.649H62V522.677H63ZM562 529.12V523.142H563V529.12H562ZM63 534.622V540.595H62V534.622H63ZM562 541.076V535.098H563V541.076H562ZM63 546.568V552.541H62V546.568H63ZM562 553.033V547.055H563V553.033H562ZM62 561H59.3438V562H65.4732V561H63V558.514H62V561ZM562 561V559.011H563V562H559.027V561H562ZM15.1563 562H12V561H15.1563V562ZM27.7813 562H21.4688V561H27.7813V562ZM40.4063 562H34.0938V561H40.4063V562ZM53.0313 562H46.7188V561H53.0313V562ZM77.3661 562H71.4196V561H77.3661V562ZM89.2589 562H83.3125V561H89.2589V562ZM101.152 562H95.2054V561H101.152V562ZM113.045 562H107.098V561H113.045V562ZM124.938 562H118.991V561H124.938V562ZM136.83 562H130.884V561H136.83V562ZM148.723 562H142.777V561H148.723V562ZM160.616 562H154.67V561H160.616V562ZM172.509 562H166.562V561H172.509V562ZM184.402 562H178.455V561H184.402V562ZM196.295 562H190.348V561H196.295V562ZM208.188 562H202.241V561H208.188V562ZM220.08 562H214.134V561H220.08V562ZM231.973 562H226.027V561H231.973V562ZM243.866 562H237.92V561H243.866V562ZM255.759 562H249.812V561H255.759V562ZM267.652 562H261.705V561H267.652V562ZM279.545 562H273.598V561H279.545V562ZM291.437 562H285.491V561H291.437V562ZM303.33 562H297.384V561H303.33V562ZM315.223 562H309.277V561H315.223V562ZM327.116 562H321.17V561H327.116V562ZM339.009 562H333.062V561H339.009V562ZM350.902 562H344.955V561H350.902V562ZM362.795 562H356.848V561H362.795V562ZM374.688 562H368.741V561H374.688V562ZM386.58 562H380.634V561H386.58V562ZM398.473 562H392.527V561H398.473V562ZM410.366 562H404.42V561H410.366V562ZM422.259 562H416.313V561H422.259V562ZM434.152 562H428.206V561H434.152V562ZM446.045 562H440.098V561H446.045V562ZM457.938 562H451.991V561H457.938V562ZM469.831 562H463.884V561H469.831V562ZM481.723 562H475.777V561H481.723V562ZM493.616 562H487.67V561H493.616V562ZM505.509 562H499.563V561H505.509V562ZM517.402 562H511.456V561H517.402V562ZM529.295 562H523.349V561H529.295V562ZM541.188 562H535.242V561H541.188V562ZM553.081 562H547.134V561H553.081V562Z" fill="white"/>
<path fill-rule="evenodd" clip-rule="evenodd" d="M14.9892 62H12V61H14.9892V62ZM26.9457 62H20.9674V61H26.9457V62ZM38.9022 62H32.9239V61H38.9022V62ZM50.8587 62H44.8805V61H50.8587V62ZM62.8152 62H56.837V61H62.8152V62ZM74.7718 62H68.7935V61H74.7718V62ZM86.7283 62H80.75V61H86.7283V62ZM98.6848 62H92.7066V61H98.6848V62ZM110.641 62H104.663V61H110.641V62ZM122.598 62H116.62V61H122.598V62ZM134.554 62H128.576V61H134.554V62ZM146.511 62H140.533V61H146.511V62ZM158.467 62H152.489V61H158.467V62ZM170.424 62H164.446V61H170.424V62ZM182.38 62H176.402V61H182.38V62ZM194.337 62H188.359V61H194.337V62ZM206.294 62H200.315V61H206.294V62ZM218.25 62H212.272V61H218.25V62ZM230.207 62H224.228V61H230.207V62ZM242.163 62H236.185V61H242.163V62ZM254.12 62H248.141V61H254.12V62ZM266.076 62H260.098V61H266.076V62ZM278.033 62H272.054V61H278.033V62ZM289.989 62H284.011V61H289.989V62ZM301.946 62H295.967V61H301.946V62ZM313.902 62H307.924V61H313.902V62ZM325.859 62H319.88V61H325.859V62ZM337.815 62H331.837V61H337.815V62ZM349.772 62H343.794V61H349.772V62ZM361.728 62H355.75V61H361.728V62ZM373.685 62H367.707V61H373.685V62ZM385.641 62H379.663V61H385.641V62ZM397.598 62H391.62V61H397.598V62ZM409.555 62H403.576V61H409.555V62ZM421.511 62H415.533V61H421.511V62ZM433.468 62H427.489V61H433.468V62ZM445.424 62H439.446V61H445.424V62ZM457.381 62H451.402V61H457.381V62ZM469.337 62H463.359V61H469.337V62ZM481.294 62H475.316V61H481.294V62ZM493.25 62H487.272V61H493.25V62ZM505.207 62H499.229V61H505.207V62ZM517.163 62H511.185V61H517.163V62ZM529.12 62H523.142V61H529.12V62ZM541.077 62H535.098V61H541.077V62ZM553.033 62H547.055V61H553.033V62ZM562 62H559.011V61H562V62Z" fill="white"/>
</svg>
