<svg width="70" height="18" viewBox="0 0 70 18" fill="none" xmlns="http://www.w3.org/2000/svg">
<path d="M2.10558 7.73872V0.0131555H0V17.9901H2.10558V10.2909C2.58189 10.7579 3.06147 11.2216 3.55092 11.6788C3.89582 12.0011 4.2473 12.3201 4.60535 12.6293C4.98968 12.9647 5.38386 13.2936 5.78461 13.6094C6.14266 13.8922 6.51056 14.1685 6.88175 14.4316C7.21351 14.6651 7.55185 14.8887 7.89676 15.1025C8.25809 15.3261 8.626 15.5333 9.00047 15.734C9.48663 15.9905 9.98264 16.224 10.4885 16.4378C11.0305 16.668 11.5856 16.8719 12.1441 17.0528C12.489 17.1646 12.8339 17.2666 13.1821 17.362C13.481 17.4442 13.7832 17.5231 14.0854 17.5955C14.2858 17.6448 14.4862 17.6908 14.6865 17.7369C14.9263 17.7895 15.1661 17.8388 15.4092 17.8849C15.5045 17.9013 15.603 17.9211 15.6983 17.9342C15.7771 17.9474 15.8527 17.9572 15.9315 17.9671C15.9972 17.9737 16.0629 17.9803 16.1253 17.9901V15.8688C16.0727 15.8622 16.0235 15.8557 15.9709 15.8491C13.1624 15.4972 10.9254 14.5862 8.98405 13.3495C7.09198 12.1425 5.48569 10.6231 3.9221 9.0148C5.48569 7.40325 7.09198 5.88379 8.98405 4.67678C10.9221 3.44016 13.1624 2.52914 15.9709 2.17723C16.0235 2.17066 16.0727 2.16408 16.1253 2.1575V0.0394665C16.0596 0.0460442 15.9939 0.0559108 15.9315 0.0624886C15.8658 0.0690663 15.8001 0.0789329 15.7344 0.0887996C15.6556 0.101955 15.5734 0.115111 15.4946 0.128266C15.4026 0.14471 15.3107 0.161155 15.2187 0.180888C15.1136 0.200621 15.0117 0.223643 14.9066 0.243377C14.7949 0.266399 14.68 0.29271 14.5683 0.319021C14.3646 0.365065 14.161 0.414398 13.9573 0.463731C13.6978 0.529508 13.4383 0.595286 13.1788 0.667641C12.916 0.739996 12.6532 0.81564 12.3937 0.897862C11.9043 1.04915 11.4181 1.22017 10.9418 1.40764C10.4951 1.58195 10.0516 1.77599 9.61802 1.98319C9.23698 2.16737 8.85922 2.3647 8.49132 2.5719C8.18911 2.74292 7.89348 2.92052 7.60113 3.10798C7.30877 3.29545 7.01971 3.49278 6.73393 3.69669C6.40873 3.9302 6.0901 4.17029 5.77804 4.41696C5.43641 4.68664 5.09808 4.9662 4.76959 5.25233C4.42468 5.54833 4.08306 5.85419 3.74801 6.16335C3.20929 6.65997 2.66729 7.1829 2.09901 7.73872H2.10558Z" fill="white"/>
<path d="M31.5608 4.57811C31.5608 5.03526 31.5443 5.49242 31.5115 5.94628C31.4786 6.37384 31.4294 6.80139 31.3604 7.22236C31.2947 7.62032 31.2126 8.01827 31.1075 8.40965C31.0089 8.78129 30.8907 9.14635 30.7527 9.50484C30.6213 9.84688 30.4702 10.1856 30.2994 10.5112C30.1351 10.827 29.9479 11.1328 29.7443 11.4288C29.5439 11.7183 29.3238 11.9945 29.0906 12.2576C28.8541 12.5207 28.6011 12.7674 28.3351 12.9976C28.0624 13.2344 27.7766 13.4515 27.4777 13.6521C27.1689 13.8593 26.847 14.0468 26.5185 14.2178C26.1736 14.3954 25.8189 14.5565 25.4575 14.698C25.0765 14.8493 24.6856 14.9775 24.2914 15.0926C23.8742 15.2143 23.4538 15.313 23.0235 15.3985C22.5636 15.4873 22.0906 15.5597 21.6471 15.6156C21.1741 15.6748 20.7339 15.7175 20.1689 15.7636C19.5645 15.8129 18.8189 15.8655 18.8353 15.8622V18C18.8944 18 19.7189 17.9441 20.3989 17.8915C21.0394 17.8388 21.5551 17.7895 22.1004 17.7172C22.6161 17.6514 23.1581 17.5659 23.687 17.4573C24.1863 17.3554 24.6725 17.237 25.1553 17.0923C25.6119 16.9574 26.0652 16.8028 26.512 16.6252C26.9357 16.4542 27.3496 16.2635 27.7504 16.053C28.138 15.8491 28.5124 15.6221 28.8738 15.3755C29.2252 15.1354 29.5603 14.8723 29.8789 14.5894C30.1943 14.3132 30.4899 14.0139 30.7691 13.6982C31.045 13.3824 31.3046 13.0502 31.5378 12.7049C31.7776 12.353 31.9944 11.9847 32.1882 11.6064C32.3885 11.2183 32.5659 10.8138 32.7203 10.406C32.8813 9.97844 33.0192 9.54431 33.1342 9.1036C33.2557 8.63987 33.351 8.16956 33.4298 7.69925C33.512 7.19934 33.5678 6.69614 33.6072 6.19295C33.6466 5.65686 33.6664 5.12077 33.6664 4.58469V0.0131555H31.5608V4.57811Z" fill="white"/>
<path d="M58.3388 6.18966C58.71 5.89366 59.091 5.61082 59.4786 5.34113C59.8728 5.06815 60.2769 4.80833 60.6875 4.56496C60.97 4.39722 61.259 4.23936 61.5514 4.08807C62.0047 3.85456 62.4711 3.64078 62.9442 3.45003C63.4369 3.25269 63.9395 3.07838 64.4519 2.9271C64.9906 2.76923 65.5392 2.63768 66.091 2.53572C66.6823 2.4239 67.2769 2.34168 67.878 2.28906C68.5842 2.22657 69.2938 2.20026 70 2.20354V0C69.9409 0 69.8785 0.00328887 69.8193 0.00657775C69.2215 0.0230221 68.6204 0.0559108 68.0225 0.101955C67.5331 0.141422 67.0436 0.190755 66.5542 0.256532C66.1502 0.312443 65.7461 0.37822 65.3421 0.457153C65.1056 0.503197 64.8724 0.552531 64.6391 0.605153C64.488 0.64133 64.3369 0.677508 64.1858 0.716974C64.0314 0.756441 63.8803 0.799196 63.7292 0.84524C63.4007 0.943906 63.0788 1.05244 62.7569 1.16755C62.4087 1.29582 62.0605 1.43066 61.7222 1.57866C61.5547 1.65101 61.3871 1.72666 61.2229 1.8023C61.0587 1.87795 60.8944 1.95688 60.7335 2.0391C60.2342 2.28906 59.7447 2.56203 59.2684 2.85474C59.022 3.00603 58.779 3.16061 58.5392 3.32176C58.2534 3.51252 57.9742 3.70985 57.6983 3.91376C57.1595 4.31171 56.6373 4.7294 56.1281 5.16682C55.6354 5.58779 55.1591 6.02193 54.6861 6.46921C54.3379 6.7981 53.9962 7.13028 53.6546 7.46574C52.9484 6.76192 52.2356 6.06468 51.4998 5.39375C51.1286 5.05829 50.7508 4.7294 50.3665 4.41038C49.9789 4.08807 49.5814 3.77891 49.1708 3.48292C48.7569 3.18363 48.3332 2.8975 47.8996 2.62781C47.6007 2.44363 47.2985 2.26932 46.9897 2.10159C46.5101 1.84177 46.0206 1.60826 45.5214 1.39448C44.9991 1.17413 44.4669 0.980084 43.9249 0.812352C43.3534 0.638041 42.7719 0.490042 42.1872 0.374931C41.5598 0.249954 40.9259 0.161155 40.2886 0.0986662C39.5988 0.0328887 38.9057 0.00328887 38.2126 0.00328887H36.2811V17.8948H38.2126C38.9057 17.8948 39.5988 17.8652 40.2886 17.7994C40.9259 17.7402 41.5598 17.6481 42.1872 17.5231C42.7752 17.408 43.3534 17.2633 43.9249 17.0857C44.4669 16.918 44.9991 16.7239 45.5214 16.5036C46.0206 16.2931 46.5134 16.0563 46.9897 15.7965C47.2985 15.6287 47.6007 15.4544 47.8996 15.2702C48.3332 15.0005 48.7569 14.7144 49.1708 14.4151C49.5781 14.1191 49.9756 13.8067 50.3665 13.4877C50.7541 13.1686 51.1286 12.8398 51.4998 12.5043C52.2389 11.8334 52.9484 11.1361 53.6546 10.4323C53.9962 10.7678 54.3379 11.0999 54.6861 11.4288C55.1558 11.8728 55.6354 12.3102 56.1281 12.7312C56.6373 13.1654 57.1595 13.5863 57.6983 13.9843C57.9742 14.1882 58.2567 14.3855 58.5392 14.5763C58.779 14.7374 59.022 14.892 59.2684 15.0433C59.7447 15.336 60.2342 15.609 60.7335 15.8589C61.0587 16.0234 61.3871 16.1747 61.7222 16.3194C62.0638 16.4674 62.4087 16.6022 62.7569 16.7305C63.0788 16.8489 63.4007 16.9574 63.7292 17.0528C63.8803 17.0988 64.0347 17.1416 64.1858 17.1811C64.3369 17.2205 64.488 17.2567 64.6391 17.2929C64.8724 17.3455 65.1056 17.3948 65.3421 17.4409C65.7428 17.5198 66.1469 17.5856 66.5542 17.6415C67.0404 17.7073 67.5298 17.7599 68.0225 17.7961C68.6204 17.8421 69.2182 17.8717 69.8193 17.8915C69.8785 17.8915 69.9409 17.8948 70 17.898V15.8688C69.2905 15.8721 68.5809 15.8458 67.878 15.7833C67.2801 15.7307 66.6823 15.6485 66.091 15.5366C65.5392 15.4314 64.9906 15.3031 64.4519 15.1453C63.9427 14.994 63.4369 14.8197 62.9442 14.6223C62.4711 14.4316 62.0047 14.2178 61.5514 13.9843C61.259 13.833 60.9733 13.6751 60.6875 13.5074C60.2736 13.264 59.8728 13.0042 59.4786 12.7312C59.091 12.4615 58.71 12.1754 58.3388 11.8827C57.9709 11.59 57.6096 11.2841 57.2548 10.975C56.5486 10.3534 55.8653 9.69888 55.1952 9.03782C55.8653 8.37676 56.5453 7.72227 57.2548 7.10068C57.6096 6.78823 57.9709 6.48566 58.3388 6.19295V6.18966ZM51.1319 10.0475C50.6424 10.5211 50.1431 10.9881 49.6274 11.4354C49.3745 11.6558 49.1183 11.8728 48.8588 12.0833C48.5993 12.2938 48.3365 12.4977 48.0671 12.695C47.801 12.8924 47.5284 13.0798 47.2525 13.2607C47.0488 13.3956 46.8419 13.5238 46.6316 13.6488C46.129 13.9481 45.61 14.2211 45.0779 14.4612C44.7626 14.6026 44.4439 14.7341 44.1187 14.8525C43.787 14.9742 43.4486 15.0861 43.107 15.1847C42.3712 15.3952 41.619 15.5498 40.8634 15.6517C40.0718 15.7603 39.2736 15.8096 38.4754 15.8162V2.12132C39.2736 2.1279 40.0718 2.18052 40.8634 2.28577C41.6222 2.38772 42.3745 2.5423 43.107 2.75279C43.4486 2.85145 43.787 2.95999 44.1187 3.08496C44.4439 3.20336 44.7626 3.33492 45.0779 3.47634C45.3834 3.61447 45.6823 3.76247 45.9779 3.92034C46.198 4.03874 46.4148 4.16042 46.6316 4.28869C47.1244 4.58469 47.6039 4.90371 48.0671 5.24246C48.6058 5.63713 49.1248 6.06139 49.6274 6.49881C50.1431 6.9461 50.6391 7.41312 51.1319 7.88672C51.4998 8.24191 51.8644 8.60369 52.229 8.96547C51.8677 9.32724 51.503 9.68902 51.1319 10.0442V10.0475Z" fill="white"/>
</svg>
