<svg width="36" height="36" viewBox="0 0 36 36" fill="none" xmlns="http://www.w3.org/2000/svg">
<path d="M18 36C27.9411 36 36 27.9411 36 18C36 8.05887 27.9411 0 18 0C8.05888 0 0 8.05887 0 18C0 27.9411 8.05888 36 18 36Z" fill="white"/>
<path d="M21.8332 23.6739C22.0651 23.4883 22.3034 23.3112 22.548 23.1425C22.7946 22.9717 23.0477 22.8094 23.3049 22.6555C23.482 22.55 23.6633 22.4509 23.8447 22.3582C24.1293 22.2127 24.4203 22.0777 24.7176 21.9597C25.0275 21.8353 25.3417 21.7256 25.6622 21.6329C25.9995 21.5338 26.3432 21.4515 26.689 21.3862C27.0601 21.3166 27.4333 21.266 27.8086 21.2322C28.2155 21.1964 28.6225 21.1795 29.0294 21.1795H29.139V19.8596C29.1011 19.8596 29.0631 19.8617 29.0252 19.8638C28.6499 19.8744 28.2767 19.8934 27.9035 19.9229C27.5977 19.9482 27.292 19.9798 26.9863 20.0199C26.7333 20.0536 26.4802 20.0958 26.2293 20.1443C26.0817 20.1738 25.9363 20.2033 25.7908 20.2371C25.6959 20.2581 25.601 20.2813 25.5061 20.3066C25.4113 20.3319 25.3143 20.3593 25.2194 20.3867C25.0149 20.4479 24.8124 20.5154 24.6121 20.5892C24.395 20.6693 24.1778 20.7536 23.9648 20.8464C23.8594 20.8907 23.7561 20.9371 23.6528 20.9856C23.5495 21.0341 23.4483 21.0825 23.3471 21.1332C23.035 21.2892 22.7293 21.46 22.432 21.6434C22.2781 21.7383 22.1263 21.8353 21.9766 21.9365C21.7994 22.0567 21.6223 22.1789 21.4515 22.3076C21.1142 22.5564 20.7895 22.8178 20.4711 23.0919C20.1633 23.3555 19.866 23.6275 19.5708 23.9058C19.3536 24.1103 19.1407 24.319 18.9277 24.5278C18.487 24.0871 18.0422 23.6507 17.5804 23.2332C17.3485 23.0223 17.1123 22.8178 16.872 22.6175C16.6295 22.4172 16.3807 22.2232 16.1256 22.0377C15.8683 21.85 15.6027 21.6708 15.3307 21.5042C15.1451 21.3883 14.9554 21.2786 14.7635 21.1753C14.4641 21.013 14.1584 20.8654 13.8463 20.7325C13.5195 20.5955 13.1885 20.4732 12.849 20.3699C12.4927 20.2602 12.13 20.1696 11.7631 20.0958C11.371 20.0178 10.9746 19.9608 10.5761 19.9229C10.1459 19.8828 9.71159 19.8638 9.27936 19.8638H8.07331V31.0514H9.27936C9.71159 31.0514 10.1459 31.0324 10.5761 30.9924C10.9746 30.9544 11.371 30.8975 11.7631 30.8195C12.13 30.7478 12.4927 30.655 12.849 30.5454C13.1863 30.442 13.5195 30.3197 13.8463 30.1827C14.1584 30.0499 14.4662 29.9023 14.7635 29.7399C14.9554 29.6366 15.1451 29.527 15.3307 29.411C15.6027 29.2423 15.8662 29.0652 16.1256 28.8776C16.3807 28.692 16.6295 28.498 16.872 28.2977C17.1123 28.0974 17.3485 27.8929 17.5804 27.6821C18.0422 27.2625 18.4849 26.826 18.9277 26.3875C19.1407 26.5962 19.3536 26.8049 19.5708 27.0095C19.8639 27.2878 20.1633 27.5598 20.4711 27.8233C20.7895 28.0953 21.1142 28.3589 21.4515 28.6077C21.6244 28.7342 21.7994 28.8586 21.9766 28.9788C22.1263 29.08 22.2781 29.177 22.432 29.2718C22.7293 29.4553 23.035 29.6261 23.3471 29.7821C23.5495 29.8833 23.7561 29.9803 23.9648 30.0688C24.1778 30.1616 24.395 30.246 24.6121 30.3261C24.8124 30.3999 25.0149 30.4673 25.2194 30.5285C25.3143 30.5559 25.4091 30.5833 25.5061 30.6086C25.601 30.6339 25.6959 30.6571 25.7908 30.6782C25.9363 30.7119 26.0839 30.7436 26.2293 30.771C26.4802 30.8195 26.7333 30.8616 26.9863 30.8954C27.2899 30.9375 27.5956 30.9692 27.9035 30.9924C28.2767 31.0219 28.652 31.0408 29.0252 31.0514C29.0631 31.0514 29.1011 31.0535 29.139 31.0556V29.7357H29.0294C28.6225 29.7357 28.2134 29.7188 27.8086 29.683C27.4333 29.6493 27.0601 29.5986 26.689 29.5291C26.3432 29.4637 25.9995 29.3815 25.6622 29.2824C25.3417 29.1896 25.0275 29.08 24.7176 28.9556C24.4203 28.8354 24.1293 28.7026 23.8447 28.5571C23.6612 28.4622 23.482 28.3631 23.3049 28.2598C23.0456 28.108 22.7925 27.9456 22.548 27.7727C22.3034 27.604 22.0672 27.4248 21.8332 27.2414C21.6012 27.0579 21.3756 26.8682 21.1543 26.6721C20.7115 26.282 20.2835 25.8751 19.8639 25.4597C20.2835 25.0465 20.7115 24.6374 21.1543 24.2474C21.3756 24.0534 21.6012 23.8615 21.8332 23.6781V23.6739ZM17.3147 26.1281C17.0069 26.4233 16.6948 26.7143 16.3744 26.9947C16.2162 27.1317 16.056 27.2667 15.8915 27.3995C15.7292 27.5302 15.5647 27.6589 15.396 27.7812C15.2295 27.9034 15.0608 28.0215 14.8879 28.1354C14.7593 28.2197 14.6306 28.2998 14.4999 28.3778C14.1858 28.5655 13.8611 28.7342 13.5279 28.886C13.3318 28.9745 13.1315 29.0568 12.9291 29.1306C12.7204 29.2065 12.5095 29.2761 12.2966 29.3372C11.8369 29.47 11.3667 29.5649 10.8923 29.6282C10.3968 29.6956 9.89714 29.7273 9.39743 29.7315V21.1774C9.89714 21.1816 10.3968 21.2133 10.8923 21.2807C11.3667 21.344 11.8369 21.441 12.2966 21.5738C12.5095 21.635 12.7204 21.7045 12.9291 21.7804C13.1315 21.8542 13.3318 21.9365 13.5279 22.025C13.7177 22.1115 13.9074 22.2042 14.0909 22.3012C14.2279 22.375 14.365 22.4509 14.4999 22.5311C14.8078 22.7145 15.1072 22.9148 15.3981 23.1278C15.7355 23.3745 16.0602 23.6401 16.3744 23.9142C16.697 24.1946 17.009 24.4856 17.3147 24.7808C17.5446 25.0022 17.7723 25.2278 18 25.4555C17.7723 25.6811 17.5446 25.9046 17.3147 26.1281Z" fill="black"/>
<path d="M9.39532 11.5354V6.70911H8.07964V17.9409H9.39532V13.1315C9.69472 13.4225 9.99413 13.7134 10.2999 13.9981C10.517 14.2005 10.7363 14.3987 10.9598 14.5927C11.2002 14.8035 11.4469 15.008 11.6978 15.2062C11.9213 15.3834 12.1511 15.5562 12.3851 15.7207C12.5918 15.8662 12.8047 16.0053 13.0198 16.1403C13.2454 16.2795 13.4752 16.4102 13.7114 16.5346C14.015 16.6948 14.327 16.8403 14.6433 16.9752C14.9828 17.1186 15.3286 17.2451 15.6786 17.359C15.8936 17.4286 16.1108 17.4918 16.328 17.553C16.5156 17.6057 16.7054 17.6542 16.893 17.7006C17.0174 17.7301 17.1439 17.7596 17.2683 17.787C17.418 17.8207 17.5699 17.8524 17.7196 17.8798C17.7807 17.8903 17.8397 17.9009 17.9009 17.9114C17.9494 17.9198 17.9979 17.9262 18.0464 17.9325C18.0864 17.9367 18.1286 17.9409 18.1687 17.9473V16.6231C18.137 16.6189 18.1054 16.6147 18.0717 16.6105C16.3153 16.3912 14.9153 15.8219 13.7008 15.0481C12.518 14.2933 11.5122 13.3445 10.5339 12.3387C11.5122 11.333 12.5159 10.3842 13.7008 9.62934C14.9153 8.85553 16.3153 8.28625 18.0717 8.06697C18.1033 8.06275 18.1349 8.05853 18.1687 8.05431V6.73019C18.1286 6.73441 18.0864 6.73863 18.0464 6.74495C18.0042 6.74917 17.9641 6.7555 17.9241 6.76182C17.8735 6.77026 17.825 6.77869 17.7744 6.78712C17.7174 6.79767 17.6584 6.80821 17.6015 6.81875C17.5361 6.8314 17.4708 6.84405 17.4075 6.85881C17.3358 6.87357 17.2662 6.88833 17.1967 6.9052C17.068 6.93472 16.9415 6.96423 16.815 6.99586C16.6527 7.03592 16.4903 7.07809 16.328 7.12237C16.1635 7.16665 15.999 7.21514 15.8367 7.26574C15.531 7.36063 15.2273 7.46605 14.9279 7.58413C14.6475 7.69377 14.3713 7.81395 14.0993 7.94467C13.8611 8.05853 13.6249 8.18293 13.3951 8.31365C13.2074 8.42119 13.0219 8.53293 12.8384 8.6489C12.655 8.76697 12.4737 8.88927 12.2966 9.01578C12.0942 9.16126 11.8939 9.31096 11.6999 9.46488C11.4848 9.63355 11.2761 9.80856 11.0673 9.98567C10.8502 10.1712 10.6393 10.361 10.4285 10.555C10.0932 10.8649 9.75165 11.1917 9.39743 11.5375L9.39532 11.5354Z" fill="black"/>
<path d="M27.8233 9.56187C27.8233 9.84651 27.8128 10.1333 27.7917 10.4158C27.7706 10.6836 27.7411 10.9492 27.6968 11.2128C27.6547 11.4616 27.6041 11.7104 27.5387 11.955C27.4775 12.1869 27.4038 12.4167 27.3173 12.6402C27.2351 12.8553 27.1402 13.064 27.0327 13.2686C26.9294 13.4668 26.8134 13.6586 26.6869 13.8421C26.5625 14.0234 26.4254 14.1963 26.2778 14.3586C26.1302 14.5231 25.9721 14.677 25.8055 14.8204C25.6347 14.968 25.4555 15.1029 25.27 15.2294C25.076 15.3581 24.8757 15.4761 24.6691 15.5837C24.454 15.6954 24.2305 15.7945 24.0049 15.8831C23.7666 15.9758 23.5221 16.0581 23.2754 16.1276C23.0139 16.2035 22.7504 16.2668 22.4805 16.3195C22.1937 16.3764 21.8964 16.4207 21.6202 16.4566C21.325 16.4945 21.0488 16.5198 20.6946 16.5493C20.3172 16.5789 19.8491 16.6126 19.8618 16.6105V17.9451C19.8997 17.9451 20.4142 17.9114 20.8401 17.8756C21.2407 17.8439 21.5633 17.8123 21.9049 17.768C22.2275 17.7259 22.5669 17.6732 22.898 17.6057C23.21 17.5424 23.5157 17.4686 23.8173 17.378C24.104 17.2936 24.3865 17.1966 24.6649 17.0849C24.9284 16.9795 25.1878 16.8593 25.4408 16.7264C25.6832 16.5978 25.9173 16.4566 26.1429 16.3026C26.3622 16.1529 26.573 15.9885 26.7733 15.8135C26.9694 15.6406 27.155 15.455 27.33 15.2568C27.5029 15.0608 27.6652 14.852 27.8128 14.6348C27.9625 14.4156 28.0974 14.1857 28.2197 13.9496C28.3441 13.7071 28.4559 13.4562 28.5529 13.199C28.6541 12.9333 28.7384 12.6613 28.8122 12.3851C28.8881 12.0962 28.9493 11.8032 28.9956 11.508C29.0463 11.1959 29.0821 10.8818 29.1053 10.5676C29.1306 10.2324 29.1411 9.89922 29.1411 9.56397V6.71122H27.8255V9.56397L27.8233 9.56187Z" fill="black"/>
</svg>
