<svg width="22" height="22" viewBox="0 0 22 22" fill="none" xmlns="http://www.w3.org/2000/svg">
<path d="M2.84204 4.5833C2.84204 4.12767 3.21141 3.7583 3.66704 3.7583H18.3337C18.7893 3.7583 19.1587 4.12767 19.1587 4.5833C19.1587 5.03894 18.7893 5.4083 18.3337 5.4083H3.66704C3.21141 5.4083 2.84204 5.03894 2.84204 4.5833Z" fill="white"/>
<path d="M2.84204 17.4166C2.84204 16.961 3.21141 16.5916 3.66704 16.5916H18.3337C18.7893 16.5916 19.1587 16.961 19.1587 17.4166C19.1587 17.8723 18.7893 18.2416 18.3337 18.2416H3.66704C3.21141 18.2416 2.84204 17.8723 2.84204 17.4166Z" fill="white"/>
<path d="M3.66704 10.175C3.21141 10.175 2.84204 10.5443 2.84204 11C2.84204 11.4556 3.21141 11.825 3.66704 11.825H18.3337C18.7893 11.825 19.1587 11.4556 19.1587 11C19.1587 10.5443 18.7893 10.175 18.3337 10.175H3.66704Z" fill="white"/>
</svg>
