<svg width="669" height="509" viewBox="0 0 669 509" fill="none" xmlns="http://www.w3.org/2000/svg">
<mask id="path-1-outside-1_813_90" maskUnits="userSpaceOnUse" x="0" y="0" width="669" height="509" fill="black">
<rect fill="white" width="669" height="509"/>
<path fill-rule="evenodd" clip-rule="evenodd" d="M1 159.333C1 237.808 58.0899 302.948 133.003 315.487C130.6 326.454 129.334 337.837 129.334 349.5C129.334 436.945 200.222 507.834 287.667 507.834C348.448 507.834 401.194 473.605 427.736 423.376C451.561 437.728 479.489 446.001 509.333 446.001C596.778 446.001 667.667 375.112 667.667 287.667C667.667 200.222 596.778 129.334 509.333 129.334C448.553 129.334 395.807 163.563 369.264 213.791C352.6 203.753 333.928 196.689 313.998 193.349C316.401 182.382 317.667 170.998 317.667 159.333C317.667 71.8883 246.778 1 159.333 1C71.8883 1 1 71.8883 1 159.333Z"/>
</mask>
<path fill-rule="evenodd" clip-rule="evenodd" d="M1 159.333C1 237.808 58.0899 302.948 133.003 315.487C130.6 326.454 129.334 337.837 129.334 349.5C129.334 436.945 200.222 507.834 287.667 507.834C348.448 507.834 401.194 473.605 427.736 423.376C451.561 437.728 479.489 446.001 509.333 446.001C596.778 446.001 667.667 375.112 667.667 287.667C667.667 200.222 596.778 129.334 509.333 129.334C448.553 129.334 395.807 163.563 369.264 213.791C352.6 203.753 333.928 196.689 313.998 193.349C316.401 182.382 317.667 170.998 317.667 159.333C317.667 71.8883 246.778 1 159.333 1C71.8883 1 1 71.8883 1 159.333Z" fill="white"/>
<path d="M133.003 315.487L133.979 315.701L134.204 314.674L133.168 314.501L133.003 315.487ZM427.736 423.376L428.252 422.52L427.346 421.974L426.852 422.909L427.736 423.376ZM369.264 213.791L368.748 214.648L369.654 215.194L370.149 214.259L369.264 213.791ZM313.998 193.349L313.021 193.135L312.796 194.162L313.832 194.335L313.998 193.349ZM133.168 314.501C58.7288 302.041 2 237.311 2 159.333H0C0 238.304 57.4509 303.855 132.837 316.474L133.168 314.501ZM130.334 349.5C130.334 337.91 131.592 326.598 133.979 315.701L132.026 315.273C129.607 326.31 128.334 337.765 128.334 349.5H130.334ZM287.667 506.834C200.775 506.834 130.334 436.393 130.334 349.5H128.334C128.334 437.498 199.67 508.834 287.667 508.834V506.834ZM426.852 422.909C400.476 472.823 348.062 506.834 287.667 506.834V508.834C348.833 508.834 401.912 474.387 428.62 423.844L426.852 422.909ZM509.333 445.001C479.677 445.001 451.926 436.781 428.252 422.52L427.22 424.233C451.197 438.676 479.302 447.001 509.333 447.001V445.001ZM666.667 287.667C666.667 374.56 596.226 445.001 509.333 445.001V447.001C597.331 447.001 668.667 375.665 668.667 287.667H666.667ZM509.333 130.334C596.226 130.334 666.667 200.775 666.667 287.667H668.667C668.667 199.67 597.331 128.334 509.333 128.334V130.334ZM370.149 214.259C396.525 164.345 448.938 130.334 509.333 130.334V128.334C448.168 128.334 395.089 162.781 368.38 213.324L370.149 214.259ZM313.832 194.335C333.636 197.654 352.189 204.673 368.748 214.648L369.78 212.935C353.011 202.833 334.22 195.724 314.163 192.363L313.832 194.335ZM316.667 159.333C316.667 170.925 315.409 182.237 313.021 193.135L314.974 193.563C317.393 182.526 318.667 171.07 318.667 159.333H316.667ZM159.333 2C246.226 2 316.667 72.4405 316.667 159.333H318.667C318.667 71.336 247.331 0 159.333 0V2ZM2 159.333C2 72.4405 72.4405 2 159.333 2V0C71.336 0 0 71.336 0 159.333H2Z" fill="white" mask="url(#path-1-outside-1_813_90)"/>
</svg>
