<svg width="669" height="509" viewBox="0 0 669 509" fill="none" xmlns="http://www.w3.org/2000/svg">
<mask id="path-1-outside-1_781_155" maskUnits="userSpaceOnUse" x="0" y="0" width="669" height="509" fill="black">
<rect fill="white" width="669" height="509"/>
<path fill-rule="evenodd" clip-rule="evenodd" d="M1 159.333C1 237.808 58.0899 302.948 133.003 315.487C130.6 326.454 129.334 337.837 129.334 349.5C129.334 436.945 200.222 507.834 287.667 507.834C348.448 507.834 401.194 473.605 427.736 423.376C451.561 437.728 479.489 446.001 509.333 446.001C596.778 446.001 667.667 375.112 667.667 287.667C667.667 200.222 596.778 129.334 509.333 129.334C448.553 129.334 395.807 163.563 369.264 213.791C352.6 203.753 333.928 196.689 313.998 193.349C316.401 182.382 317.667 170.998 317.667 159.333C317.667 71.8883 246.778 1 159.333 1C71.8883 1 1 71.8883 1 159.333Z"/>
</mask>
<path d="M133.003 315.487L133.491 315.594L133.603 315.081L133.085 314.994L133.003 315.487ZM427.736 423.376L427.994 422.948L427.541 422.675L427.294 423.143L427.736 423.376ZM369.264 213.791L369.006 214.22L369.459 214.492L369.707 214.025L369.264 213.791ZM313.998 193.349L313.509 193.242L313.397 193.755L313.915 193.842L313.998 193.349ZM133.085 314.994C132.258 314.856 131.433 314.711 130.611 314.56L130.43 315.543C131.258 315.695 132.088 315.841 132.92 315.98L133.085 314.994ZM118.876 311.934C117.257 311.506 115.648 311.052 114.049 310.574L113.763 311.532C115.371 312.013 116.991 312.47 118.621 312.901L118.876 311.934ZM102.665 306.688C101.103 306.088 99.5539 305.463 98.0168 304.814L97.628 305.735C99.1749 306.388 100.734 307.017 102.306 307.622L102.665 306.688ZM87.1234 299.717C85.636 298.95 84.1624 298.161 82.7031 297.349L82.2168 298.223C83.6855 299.04 85.1684 299.834 86.6652 300.606L87.1234 299.717ZM72.4225 291.104C71.0277 290.182 69.6484 289.238 68.2851 288.274L67.7075 289.09C69.0795 290.061 70.4675 291.01 71.8711 291.938L72.4225 291.104ZM58.736 280.959C57.4484 279.893 56.1781 278.807 54.9254 277.701L54.2636 278.451C55.5242 279.564 56.8025 280.657 58.0982 281.73L58.736 280.959ZM46.2154 269.405C45.05 268.207 43.9034 266.991 42.7761 265.758L42.0379 266.432C43.1722 267.674 44.326 268.897 45.4988 270.102L46.2154 269.405ZM35.0047 256.575C33.9749 255.26 32.9654 253.929 31.9768 252.581L31.1704 253.172C32.1653 254.528 33.1811 255.869 34.2175 257.192L35.0047 256.575ZM25.2369 242.618C24.3545 241.2 23.494 239.767 22.6557 238.32L21.7904 238.821C22.6339 240.278 23.4999 241.72 24.3879 243.146L25.2369 242.618ZM17.0285 227.687C16.305 226.184 15.6047 224.667 14.928 223.138L14.0135 223.542C14.6946 225.081 15.3993 226.608 16.1274 228.121L17.0285 227.687ZM10.4865 211.96C9.93023 210.387 9.3982 208.802 8.89086 207.207L7.93787 207.51C8.44845 209.116 8.98387 210.71 9.54369 212.294L10.4865 211.96ZM5.68906 195.611C5.30758 193.989 4.95112 192.358 4.62011 190.717L3.63986 190.915C3.97298 192.566 4.33171 194.208 4.71562 195.84L5.68906 195.611ZM2.69392 178.844C2.48981 177.188 2.31133 175.524 2.15891 173.853L1.16304 173.944C1.31643 175.626 1.49603 177.3 1.70144 178.966L2.69392 178.844ZM1.51963 161.848C1.50656 161.012 1.5 160.173 1.5 159.333H0.5C0.5 160.178 0.506601 161.022 0.519755 161.864L1.51963 161.848ZM1.5 159.333C1.5 158.518 1.50618 157.705 1.51849 156.893L0.518602 156.877C0.506215 157.695 0.5 158.513 0.5 159.333H1.5ZM2.12029 145.244C2.26353 143.624 2.43123 142.012 2.623 140.407L1.63006 140.289C1.43708 141.904 1.26833 143.526 1.12418 145.156L2.12029 145.244ZM4.43406 128.887C4.74575 127.292 5.08146 125.705 5.4408 124.128L4.46578 123.906C4.10415 125.493 3.7663 127.09 3.45262 128.695L4.43406 128.887ZM8.45202 112.863C8.92971 111.31 9.43071 109.768 9.95462 108.236L9.00842 107.912C8.48117 109.454 7.97696 111.006 7.49622 112.569L8.45202 112.863ZM14.1362 97.3494C14.7742 95.8568 15.4346 94.376 16.1169 92.9075L15.21 92.4861C14.5234 93.964 13.8588 95.4543 13.2167 96.9564L14.1362 97.3494ZM21.4208 82.5184C22.2112 81.1023 23.0228 79.6997 23.8552 78.3109L22.9974 77.7969C22.1598 79.1944 21.3431 80.606 20.5476 82.031L21.4208 82.5184ZM30.2181 68.5325C31.1517 67.2074 32.1052 65.8972 33.0782 64.6025L32.2788 64.0018C31.2997 65.3046 30.3401 66.623 29.4006 67.9565L30.2181 68.5325ZM40.4255 55.5403C41.4919 54.3197 42.5767 53.1156 43.6796 51.9286L42.947 51.2479C41.8371 52.4424 40.7455 53.6541 39.6724 54.8824L40.4255 55.5403ZM51.9286 43.6796C53.1156 42.5767 54.3197 41.4919 55.5403 40.4255L54.8824 39.6724C53.6541 40.7455 52.4424 41.8372 51.2479 42.947L51.9286 43.6796ZM64.6025 33.0782C65.8972 32.1053 67.2073 31.1517 68.5325 30.2181L67.9565 29.4006C66.623 30.3402 65.3046 31.2997 64.0017 32.2788L64.6025 33.0782ZM78.3109 23.8552C79.6997 23.0228 81.1023 22.2112 82.5184 21.4208L82.031 20.5476C80.6059 21.3431 79.1944 22.1598 77.7968 22.9974L78.3109 23.8552ZM92.9075 16.1169C94.376 15.4346 95.8568 14.7742 97.3494 14.1362L96.9564 13.2167C95.4542 13.8588 93.964 14.5234 92.4861 15.21L92.9075 16.1169ZM108.236 9.95463C109.768 9.43072 111.31 8.92972 112.863 8.45203L112.569 7.49623C111.006 7.97697 109.454 8.48117 107.912 9.00843L108.236 9.95463ZM124.128 5.44081C125.705 5.08147 127.292 4.74576 128.887 4.43407L128.695 3.45263C127.09 3.76631 125.493 4.10416 123.906 4.46579L124.128 5.44081ZM140.407 2.623C142.012 2.43123 143.624 2.26354 145.244 2.1203L145.155 1.12419C143.526 1.26833 141.904 1.43708 140.289 1.63007L140.407 2.623ZM156.893 1.51849C157.705 1.50618 158.518 1.5 159.333 1.5V0.5C158.513 0.5 157.695 0.506216 156.877 0.518603L156.893 1.51849ZM159.333 1.5C160.148 1.5 160.962 1.50618 161.774 1.51849L161.789 0.518602C160.972 0.506215 160.153 0.5 159.333 0.5V1.5ZM173.423 2.12029C175.042 2.26353 176.655 2.43123 178.259 2.623L178.378 1.63006C176.763 1.43708 175.141 1.26833 173.511 1.12418L173.423 2.12029ZM189.78 4.43406C191.375 4.74575 192.961 5.08146 194.539 5.4408L194.761 4.46578C193.173 4.10415 191.577 3.7663 189.972 3.45263L189.78 4.43406ZM205.804 8.45202C207.356 8.92971 208.899 9.43071 210.431 9.95462L210.755 9.00842C209.213 8.48117 207.66 7.97696 206.098 7.49623L205.804 8.45202ZM221.317 14.1362C222.81 14.7742 224.291 15.4346 225.759 16.1169L226.181 15.21C224.703 14.5234 223.212 13.8588 221.71 13.2167L221.317 14.1362ZM236.148 21.4208C237.564 22.2112 238.967 23.0228 240.356 23.8552L240.87 22.9974C239.472 22.1598 238.061 21.3431 236.636 20.5476L236.148 21.4208ZM250.134 30.2181C251.459 31.1517 252.769 32.1052 254.064 33.0782L254.665 32.2788C253.362 31.2997 252.044 30.3401 250.71 29.4006L250.134 30.2181ZM263.126 40.4255C264.347 41.4919 265.551 42.5767 266.738 43.6796L267.419 42.947C266.224 41.8371 265.013 40.7455 263.784 39.6724L263.126 40.4255ZM274.987 51.9286C276.09 53.1156 277.175 54.3197 278.241 55.5403L278.994 54.8824C277.921 53.6541 276.83 52.4424 275.72 51.2479L274.987 51.9286ZM285.588 64.6025C286.561 65.8972 287.515 67.2073 288.449 68.5325L289.266 67.9565C288.327 66.623 287.367 65.3046 286.388 64.0017L285.588 64.6025ZM294.811 78.3109C295.644 79.6997 296.455 81.1023 297.246 82.5184L298.119 82.031C297.324 80.6059 296.507 79.1944 295.669 77.7968L294.811 78.3109ZM302.55 92.9075C303.232 94.376 303.892 95.8568 304.53 97.3494L305.45 96.9564C304.808 95.4542 304.143 93.964 303.457 92.4861L302.55 92.9075ZM308.712 108.236C309.236 109.768 309.737 111.31 310.215 112.863L311.17 112.569C310.69 111.006 310.186 109.454 309.658 107.912L308.712 108.236ZM313.226 124.128C313.585 125.705 313.921 127.292 314.233 128.887L315.214 128.695C314.9 127.09 314.563 125.493 314.201 123.906L313.226 124.128ZM316.044 140.407C316.235 142.012 316.403 143.624 316.546 145.244L317.543 145.155C317.398 143.526 317.23 141.904 317.037 140.289L316.044 140.407ZM317.148 156.893C317.161 157.705 317.167 158.518 317.167 159.333H318.167C318.167 158.513 318.16 157.695 318.148 156.877L317.148 156.893ZM317.167 159.333C317.167 160.172 317.16 161.01 317.147 161.846L318.147 161.862C318.16 161.02 318.167 160.178 318.167 159.333H317.167ZM316.503 173.887C316.35 175.56 316.17 177.225 315.965 178.883L316.957 179.006C317.164 177.338 317.344 175.662 317.499 173.978L316.503 173.887ZM314.027 190.784C313.861 191.606 313.688 192.425 313.509 193.242L314.486 193.456C314.666 192.634 314.84 191.809 315.007 190.982L314.027 190.784ZM313.915 193.842C314.869 194.002 315.82 194.17 316.767 194.347L316.951 193.364C315.997 193.186 315.04 193.017 314.08 192.856L313.915 193.842ZM330.303 197.499C332.167 198.021 334.017 198.576 335.851 199.164L336.157 198.211C334.31 197.62 332.448 197.061 330.573 196.536L330.303 197.499ZM348.886 203.987C350.669 204.737 352.434 205.52 354.182 206.333L354.604 205.427C352.845 204.608 351.068 203.821 349.275 203.065L348.886 203.987ZM366.512 212.748C367.348 213.231 368.18 213.722 369.006 214.22L369.522 213.363C368.691 212.862 367.854 212.368 367.012 211.882L366.512 212.748ZM369.707 214.025C370.099 213.282 370.498 212.542 370.902 211.806L370.026 211.324C369.619 212.065 369.218 212.81 368.822 213.558L369.707 214.025ZM377.123 201.438C378.043 200.031 378.984 198.639 379.947 197.264L379.127 196.69C378.159 198.075 377.211 199.475 376.286 200.891L377.123 201.438ZM387.252 187.629C388.318 186.33 389.404 185.048 390.51 183.784L389.757 183.126C388.644 184.398 387.551 185.688 386.479 186.995L387.252 187.629ZM398.811 174.993C400.01 173.816 401.228 172.659 402.464 171.521L401.786 170.785C400.543 171.93 399.317 173.095 398.111 174.279L398.811 174.993ZM411.664 163.675C412.982 162.635 414.318 161.615 415.669 160.617L415.075 159.813C413.715 160.817 412.371 161.843 411.045 162.89L411.664 163.675ZM425.663 153.81C427.085 152.919 428.523 152.05 429.975 151.204L429.472 150.34C428.01 151.191 426.564 152.066 425.132 152.963L425.663 153.81ZM440.649 145.52C442.159 144.789 443.682 144.081 445.219 143.397L444.812 142.484C443.266 143.172 441.733 143.884 440.213 144.62L440.649 145.52ZM456.446 138.911C458.026 138.349 459.618 137.812 461.22 137.299L460.916 136.347C459.303 136.863 457.701 137.403 456.111 137.969L456.446 138.911ZM472.869 134.066C474.5 133.68 476.141 133.32 477.791 132.985L477.593 132.005C475.932 132.342 474.281 132.704 472.639 133.092L472.869 134.066ZM489.724 131.04C491.386 130.834 493.056 130.654 494.734 130.5L494.643 129.504C492.954 129.659 491.274 129.84 489.601 130.047L489.724 131.04ZM506.808 129.854C507.648 129.841 508.49 129.834 509.333 129.834V128.834C508.485 128.834 507.638 128.841 506.792 128.854L506.808 129.854ZM509.333 129.834C510.148 129.834 510.962 129.84 511.774 129.852L511.789 128.853C510.972 128.84 510.153 128.834 509.333 128.834V129.834ZM523.423 130.454C525.042 130.598 526.655 130.765 528.259 130.957L528.378 129.964C526.763 129.771 525.141 129.602 523.511 129.458L523.423 130.454ZM539.78 132.768C541.375 133.08 542.961 133.415 544.539 133.775L544.761 132.8C543.173 132.438 541.577 132.1 539.972 131.787L539.78 132.768ZM555.804 136.786C557.356 137.264 558.899 137.765 560.431 138.289L560.755 137.342C559.213 136.815 557.66 136.311 556.098 135.83L555.804 136.786ZM571.317 142.47C572.81 143.108 574.291 143.769 575.759 144.451L576.181 143.544C574.703 142.857 573.212 142.193 571.71 141.551L571.317 142.47ZM586.148 149.755C587.564 150.545 588.967 151.357 590.356 152.189L590.87 151.331C589.472 150.494 588.061 149.677 586.636 148.882L586.148 149.755ZM600.134 158.552C601.459 159.486 602.769 160.439 604.064 161.412L604.665 160.613C603.362 159.634 602.044 158.674 600.71 157.735L600.134 158.552ZM613.126 168.76C614.347 169.826 615.551 170.911 616.738 172.014L617.419 171.281C616.224 170.171 615.013 169.079 613.784 168.006L613.126 168.76ZM624.987 180.263C626.09 181.45 627.175 182.654 628.241 183.874L628.994 183.216C627.921 181.988 626.83 180.776 625.72 179.582L624.987 180.263ZM635.588 192.937C636.561 194.231 637.515 195.541 638.449 196.866L639.266 196.291C638.327 194.957 637.367 193.639 636.388 192.336L635.588 192.937ZM644.811 206.645C645.644 208.034 646.455 209.436 647.246 210.852L648.119 210.365C647.324 208.94 646.507 207.528 645.669 206.131L644.811 206.645ZM652.55 221.241C653.232 222.71 653.892 224.191 654.53 225.683L655.45 225.29C654.808 223.788 654.143 222.298 653.457 220.82L652.55 221.241ZM658.712 236.57C659.236 238.102 659.737 239.644 660.215 241.197L661.17 240.903C660.69 239.34 660.186 237.788 659.658 236.246L658.712 236.57ZM663.226 252.462C663.585 254.039 663.921 255.626 664.233 257.22L665.214 257.029C664.9 255.424 664.563 253.827 664.201 252.24L663.226 252.462ZM666.044 268.741C666.235 270.346 666.403 271.958 666.546 273.578L667.543 273.489C667.398 271.86 667.23 270.238 667.037 268.623L666.044 268.741ZM667.148 285.227C667.161 286.039 667.167 286.852 667.167 287.667H668.167C668.167 286.847 668.16 286.029 668.148 285.211L667.148 285.227ZM667.167 287.667C667.167 288.482 667.161 289.296 667.148 290.108L668.148 290.123C668.16 289.306 668.167 288.487 668.167 287.667H667.167ZM666.546 301.757C666.403 303.376 666.235 304.989 666.044 306.593L667.037 306.712C667.23 305.097 667.398 303.475 667.543 301.845L666.546 301.757ZM664.233 318.114C663.921 319.709 663.585 321.295 663.226 322.873L664.201 323.095C664.563 321.507 664.9 319.911 665.214 318.306L664.233 318.114ZM660.215 334.138C659.737 335.69 659.236 337.233 658.712 338.765L659.658 339.089C660.186 337.547 660.69 335.994 661.17 334.432L660.215 334.138ZM654.53 349.651C653.892 351.144 653.232 352.625 652.55 354.093L653.457 354.515C654.143 353.037 654.808 351.546 655.45 350.044L654.53 349.651ZM647.246 364.482C646.455 365.898 645.644 367.301 644.812 368.69L645.669 369.204C646.507 367.806 647.324 366.395 648.119 364.97L647.246 364.482ZM638.449 378.468C637.515 379.793 636.561 381.103 635.588 382.398L636.388 382.999C637.367 381.696 638.327 380.378 639.266 379.044L638.449 378.468ZM628.241 391.46C627.175 392.681 626.09 393.885 624.987 395.072L625.72 395.753C626.83 394.558 627.921 393.347 628.994 392.118L628.241 391.46ZM616.738 403.321C615.551 404.424 614.347 405.509 613.126 406.575L613.784 407.328C615.013 406.255 616.224 405.164 617.419 404.054L616.738 403.321ZM604.064 413.922C602.769 414.895 601.459 415.849 600.134 416.783L600.71 417.6C602.044 416.661 603.362 415.701 604.665 414.722L604.064 413.922ZM590.356 423.145C588.967 423.978 587.564 424.789 586.148 425.58L586.636 426.453C588.061 425.658 589.472 424.841 590.87 424.003L590.356 423.145ZM575.759 430.884C574.291 431.566 572.81 432.226 571.317 432.864L571.71 433.784C573.212 433.142 574.703 432.477 576.181 431.791L575.759 430.884ZM560.431 437.046C558.899 437.57 557.356 438.071 555.804 438.549L556.098 439.504C557.66 439.024 559.213 438.519 560.755 437.992L560.431 437.046ZM544.539 441.56C542.961 441.919 541.375 442.255 539.78 442.567L539.972 443.548C541.577 443.234 543.174 442.897 544.761 442.535L544.539 441.56ZM528.259 444.378C526.655 444.569 525.042 444.737 523.423 444.88L523.511 445.876C525.141 445.732 526.763 445.564 528.378 445.371L528.259 444.378ZM511.774 445.482C510.962 445.494 510.148 445.501 509.333 445.501V446.501C510.153 446.501 510.972 446.494 511.789 446.482L511.774 445.482ZM509.333 445.501C508.494 445.501 507.656 445.494 506.819 445.481L506.804 446.481C507.645 446.494 508.489 446.501 509.333 446.501V445.501ZM494.774 444.837C493.101 444.684 491.435 444.504 489.777 444.299L489.654 445.292C491.323 445.498 492.999 445.679 494.683 445.833L494.774 444.837ZM477.872 442.361C476.226 442.028 474.589 441.669 472.962 441.285L472.732 442.258C474.37 442.645 476.017 443.006 477.674 443.341L477.872 442.361ZM461.34 438.065C459.74 437.555 458.152 437.02 456.576 436.461L456.242 437.403C457.828 437.966 459.426 438.504 461.036 439.018L461.34 438.065ZM445.372 431.995C443.838 431.314 442.318 430.61 440.811 429.883L440.376 430.783C441.893 431.515 443.423 432.224 444.966 432.909L445.372 431.995ZM430.157 424.228C429.433 423.807 428.712 423.38 427.994 422.948L427.478 423.805C428.2 424.239 428.926 424.669 429.655 425.092L430.157 424.228ZM427.294 423.143C426.901 423.886 426.503 424.626 426.099 425.362L426.975 425.843C427.382 425.103 427.783 424.358 428.178 423.61L427.294 423.143ZM419.877 435.73C418.958 437.137 418.017 438.528 417.054 439.904L417.873 440.477C418.842 439.093 419.789 437.693 420.714 436.277L419.877 435.73ZM409.748 449.538C408.683 450.838 407.597 452.119 406.491 453.384L407.244 454.042C408.357 452.77 409.449 451.48 410.522 450.173L409.748 449.538ZM398.189 462.175C396.99 463.351 395.773 464.509 394.537 465.647L395.214 466.382C396.458 465.237 397.683 464.073 398.89 462.889L398.189 462.175ZM385.337 473.493C384.018 474.533 382.683 475.552 381.331 476.551L381.925 477.355C383.286 476.35 384.629 475.324 385.956 474.278L385.337 473.493ZM371.338 483.357C369.915 484.249 368.478 485.118 367.025 485.964L367.529 486.828C368.99 485.976 370.437 485.102 371.868 484.205L371.338 483.357ZM356.352 491.648C354.842 492.379 353.318 493.086 351.782 493.77L352.189 494.684C353.735 493.996 355.268 493.283 356.788 492.548L356.352 491.648ZM340.555 498.257C338.975 498.819 337.383 499.356 335.78 499.868L336.085 500.821C337.698 500.305 339.3 499.764 340.89 499.199L340.555 498.257ZM324.131 503.102C322.5 503.488 320.86 503.848 319.209 504.183L319.408 505.163C321.069 504.826 322.72 504.463 324.361 504.075L324.131 503.102ZM307.277 506.128C305.615 506.334 303.944 506.514 302.267 506.668L302.358 507.664C304.046 507.509 305.727 507.328 307.4 507.12L307.277 506.128ZM290.193 507.314C289.352 507.327 288.511 507.334 287.667 507.334V508.334C288.516 508.334 289.363 508.327 290.208 508.314L290.193 507.314ZM287.667 507.334C286.852 507.334 286.039 507.328 285.227 507.315L285.211 508.315C286.029 508.327 286.847 508.334 287.667 508.334V507.334ZM273.578 506.713C271.958 506.57 270.346 506.402 268.741 506.211L268.623 507.204C270.238 507.397 271.86 507.565 273.489 507.709L273.578 506.713ZM257.221 504.4C255.626 504.088 254.039 503.752 252.462 503.393L252.24 504.368C253.827 504.73 255.424 505.067 257.029 505.381L257.221 504.4ZM241.197 500.382C239.644 499.904 238.102 499.403 236.57 498.879L236.246 499.825C237.788 500.353 239.34 500.857 240.903 501.337L241.197 500.382ZM225.683 494.697C224.191 494.059 222.71 493.399 221.241 492.717L220.82 493.624C222.298 494.31 223.788 494.975 225.29 495.617L225.683 494.697ZM210.852 487.413C209.436 486.622 208.034 485.811 206.645 484.979L206.131 485.836C207.528 486.674 208.94 487.491 210.365 488.286L210.852 487.413ZM196.866 478.616C195.541 477.682 194.231 476.728 192.937 475.755L192.336 476.555C193.639 477.534 194.957 478.494 196.291 479.433L196.866 478.616ZM183.874 468.408C182.654 467.342 181.45 466.257 180.263 465.154L179.582 465.887C180.776 466.997 181.988 468.088 183.216 469.161L183.874 468.408ZM172.014 456.905C170.911 455.718 169.826 454.514 168.76 453.293L168.006 453.951C169.079 455.18 170.171 456.391 171.281 457.586L172.014 456.905ZM161.412 444.231C160.439 442.936 159.486 441.626 158.552 440.301L157.735 440.877C158.674 442.211 159.634 443.529 160.613 444.832L161.412 444.231ZM152.189 430.523C151.357 429.134 150.545 427.731 149.755 426.315L148.882 426.803C149.677 428.228 150.494 429.639 151.331 431.037L152.189 430.523ZM144.451 415.926C143.769 414.458 143.108 412.977 142.47 411.484L141.551 411.877C142.193 413.379 142.857 414.87 143.544 416.348L144.451 415.926ZM138.289 400.598C137.765 399.066 137.264 397.523 136.786 395.971L135.83 396.265C136.311 397.827 136.815 399.38 137.342 400.922L138.289 400.598ZM133.775 384.706C133.415 383.128 133.08 381.542 132.768 379.947L131.787 380.139C132.1 381.744 132.438 383.341 132.8 384.928L133.775 384.706ZM130.957 368.426C130.765 366.822 130.598 365.209 130.454 363.59L129.458 363.678C129.602 365.308 129.771 366.93 129.964 368.545L130.957 368.426ZM129.852 351.941C129.84 351.129 129.834 350.315 129.834 349.5H128.834C128.834 350.32 128.84 351.139 128.853 351.956L129.852 351.941ZM129.834 349.5C129.834 348.661 129.841 347.824 129.854 346.988L128.854 346.972C128.841 347.813 128.834 348.656 128.834 349.5H129.834ZM130.498 334.948C130.651 333.275 130.83 331.61 131.036 329.952L130.043 329.829C129.837 331.498 129.656 333.174 129.502 334.857L130.498 334.948ZM132.973 318.052C133.139 317.231 133.312 316.411 133.491 315.594L132.514 315.38C132.334 316.203 132.16 317.027 131.993 317.854L132.973 318.052ZM133.003 315.487L133.979 315.701L134.204 314.674L133.168 314.501L133.003 315.487ZM427.736 423.376L428.252 422.52L427.346 421.974L426.852 422.909L427.736 423.376ZM369.264 213.791L368.748 214.648L369.654 215.194L370.149 214.259L369.264 213.791ZM313.998 193.349L313.021 193.135L312.796 194.162L313.832 194.335L313.998 193.349ZM133.168 314.501C132.343 314.363 131.521 314.219 130.701 314.068L130.339 316.035C131.17 316.188 132.003 316.334 132.837 316.474L133.168 314.501ZM119.004 311.45C117.39 311.024 115.786 310.572 114.192 310.095L113.619 312.012C115.233 312.494 116.858 312.952 118.493 313.384L119.004 311.45ZM102.844 306.222C101.288 305.623 99.7433 305 98.2112 304.353L97.4336 306.196C98.9854 306.851 100.55 307.482 102.126 308.088L102.844 306.222ZM87.3525 299.273C85.8698 298.508 84.4009 297.721 82.9462 296.912L81.9737 298.66C83.447 299.479 84.9346 300.276 86.4362 301.05L87.3525 299.273ZM72.6982 290.686C71.3078 289.768 69.9328 288.827 68.5738 287.866L67.4188 289.498C68.795 290.472 70.1874 291.424 71.5954 292.355L72.6982 290.686ZM59.0549 280.574C57.7714 279.511 56.505 278.429 55.2563 277.326L53.9327 278.826C55.1972 279.942 56.4796 281.038 57.7793 282.115L59.0549 280.574ZM46.5737 269.056C45.412 267.862 44.269 266.65 43.1453 265.42L41.6687 266.769C42.8066 268.015 43.964 269.242 45.1404 270.451L46.5737 269.056ZM35.3984 256.267C34.3717 254.956 33.3654 253.629 32.38 252.285L30.7672 253.468C31.7652 254.828 32.7842 256.173 33.8239 257.5L35.3984 256.267ZM25.6614 242.354C24.7818 240.94 23.924 239.512 23.0884 238.069L21.3577 239.072C22.2039 240.533 23.0726 241.979 23.9634 243.411L25.6614 242.354ZM17.479 227.47C16.7579 225.972 16.0598 224.46 15.3852 222.935L13.5563 223.745C14.2395 225.289 14.9465 226.82 15.6768 228.337L17.479 227.47ZM10.9579 211.794C10.4034 210.225 9.87308 208.646 9.36736 207.055L7.46137 207.661C7.97357 209.272 8.51069 210.872 9.07229 212.46L10.9579 211.794ZM6.17577 195.497C5.79552 193.88 5.44019 192.254 5.11023 190.618L3.14973 191.014C3.48391 192.67 3.84378 194.317 4.2289 195.955L6.17577 195.497ZM3.19017 178.782C2.9867 177.132 2.80878 175.473 2.65684 173.808L0.665109 173.989C0.818973 175.676 0.999139 177.356 1.20519 179.027L3.19017 178.782ZM2.01957 161.841C2.00654 161.006 2 160.171 2 159.333H0C0 160.181 0.00662159 161.027 0.0198162 161.872L2.01957 161.841ZM2 159.333C2 158.521 2.00616 157.71 2.01843 156.9L0.0186594 156.87C0.00623461 157.69 0 158.511 0 159.333H2ZM2.61835 145.288C2.76114 143.674 2.9283 142.066 3.11947 140.467L1.1336 140.229C0.940004 141.849 0.770723 143.477 0.626128 145.111L2.61835 145.288ZM4.92478 128.982C5.23547 127.393 5.57011 125.811 5.92831 124.239L3.97827 123.795C3.61549 125.387 3.27657 126.989 2.96191 128.599L4.92478 128.982ZM8.92992 113.01C9.40608 111.462 9.90548 109.925 10.4277 108.398L8.53532 107.75C8.00639 109.297 7.50059 110.854 7.01833 112.422L8.92992 113.01ZM14.596 97.546C15.232 96.0581 15.8902 94.582 16.5703 93.1182L14.7565 92.2755C14.0677 93.758 13.4011 95.253 12.7569 96.7599L14.596 97.546ZM21.8574 82.7621C22.6453 81.3505 23.4543 79.9524 24.284 78.568L22.5686 77.5398C21.7283 78.9418 20.909 80.3578 20.111 81.7873L21.8574 82.7621ZM30.6268 68.8205C31.5575 67.4995 32.508 66.1935 33.4779 64.9029L31.8791 63.7014C30.8969 65.0083 29.9343 66.3309 28.9919 67.6686L30.6268 68.8205ZM40.8021 55.8692C41.865 54.6525 42.9465 53.4522 44.0459 52.2689L42.5807 50.9076C41.4674 52.1059 40.3723 53.3213 39.2959 54.5534L40.8021 55.8692ZM52.2689 44.0459C53.4522 42.9465 54.6525 41.8651 55.8692 40.8021L54.5534 39.2959C53.3213 40.3723 52.1058 41.4674 50.9076 42.5807L52.2689 44.0459ZM64.9029 33.4779C66.1935 32.508 67.4995 31.5575 68.8205 30.6268L67.6686 28.9919C66.3308 29.9344 65.0083 30.8969 63.7014 31.8791L64.9029 33.4779ZM78.568 24.2841C79.9523 23.4544 81.3505 22.6453 82.7621 21.8574L81.7873 20.1111C80.3578 20.909 78.9418 21.7283 77.5398 22.5686L78.568 24.2841ZM93.1181 16.5703C94.582 15.8902 96.0581 15.232 97.5459 14.596L96.7598 12.757C95.253 13.4011 93.758 14.0677 92.2754 14.7565L93.1181 16.5703ZM108.398 10.4277C109.925 9.90549 111.462 9.40609 113.01 8.92993L112.422 7.01833C110.854 7.5006 109.297 8.0064 107.75 8.53533L108.398 10.4277ZM124.239 5.92832C125.811 5.57012 127.393 5.23548 128.982 4.92478L128.599 2.96191C126.989 3.27658 125.387 3.6155 123.795 3.97828L124.239 5.92832ZM140.467 3.11947C142.066 2.92831 143.673 2.76114 145.288 2.61835L145.111 0.626132C143.477 0.770727 141.849 0.940008 140.229 1.1336L140.467 3.11947ZM156.9 2.01843C157.71 2.00616 158.521 2 159.333 2V0C158.511 0 157.69 0.0062349 156.87 0.0186603L156.9 2.01843ZM159.333 2C160.146 2 160.957 2.00616 161.766 2.01843L161.797 0.0186594C160.977 0.00623461 160.156 0 159.333 0V2ZM173.379 2.61835C174.993 2.76114 176.6 2.9283 178.2 3.11947L178.437 1.1336C176.817 0.940004 175.19 0.770723 173.555 0.626128L173.379 2.61835ZM189.684 4.92478C191.274 5.23548 192.855 5.57012 194.428 5.92831L194.872 3.97827C193.28 3.61549 191.678 3.27658 190.068 2.96191L189.684 4.92478ZM205.657 8.92992C207.204 9.40608 208.742 9.90548 210.269 10.4277L210.916 8.53532C209.37 8.00639 207.812 7.50059 206.245 7.01833L205.657 8.92992ZM221.121 14.596C222.609 15.232 224.085 15.8902 225.549 16.5703L226.391 14.7565C224.909 14.0677 223.414 13.4011 221.907 12.7569L221.121 14.596ZM235.905 21.8574C237.316 22.6453 238.714 23.4543 240.099 24.2841L241.127 22.5686C239.725 21.7283 238.309 20.909 236.879 20.111L235.905 21.8574ZM249.846 30.6268C251.167 31.5575 252.473 32.508 253.764 33.4779L254.965 31.8791C253.658 30.8969 252.336 29.9344 250.998 28.9919L249.846 30.6268ZM262.797 40.8021C264.014 41.865 265.214 42.9465 266.398 44.0459L267.759 42.5807C266.561 41.4674 265.345 40.3723 264.113 39.2959L262.797 40.8021ZM274.621 52.2689C275.72 53.4522 276.802 54.6525 277.865 55.8692L279.371 54.5534C278.294 53.3213 277.199 52.1058 276.086 50.9076L274.621 52.2689ZM285.189 64.9029C286.159 66.1935 287.109 67.4995 288.04 68.8205L289.675 67.6686C288.732 66.3308 287.77 65.0083 286.788 63.7014L285.189 64.9029ZM294.383 78.568C295.212 79.9523 296.021 81.3505 296.809 82.7621L298.556 81.7873C297.758 80.3578 296.938 78.9418 296.098 77.5398L294.383 78.568ZM302.096 93.1181C302.776 94.582 303.435 96.0581 304.071 97.5459L305.91 96.7598C305.266 95.253 304.599 93.758 303.91 92.2754L302.096 93.1181ZM308.239 108.398C308.761 109.925 309.261 111.462 309.737 113.01L311.648 112.422C311.166 110.854 310.66 109.297 310.131 107.75L308.239 108.398ZM312.738 124.239C313.097 125.811 313.431 127.393 313.742 128.982L315.705 128.599C315.39 126.989 315.051 125.387 314.688 123.795L312.738 124.239ZM315.547 140.467C315.738 142.066 315.906 143.673 316.048 145.288L318.041 145.111C317.896 143.477 317.727 141.849 317.533 140.229L315.547 140.467ZM316.648 156.9C316.661 157.71 316.667 158.521 316.667 159.333H318.667C318.667 158.511 318.66 157.69 318.648 156.87L316.648 156.9ZM316.667 159.333C316.667 160.17 316.66 161.005 316.647 161.838L318.647 161.87C318.66 161.026 318.667 160.18 318.667 159.333H316.667ZM316.005 173.841C315.852 175.509 315.673 177.169 315.469 178.822L317.454 179.067C317.661 177.394 317.842 175.712 317.997 174.024L316.005 173.841ZM313.537 190.685C313.371 191.504 313.199 192.321 313.021 193.135L314.974 193.563C315.155 192.738 315.33 191.911 315.497 191.081L313.537 190.685ZM313.832 194.335C314.783 194.495 315.731 194.663 316.676 194.839L317.042 192.873C316.086 192.694 315.126 192.524 314.163 192.363L313.832 194.335ZM330.169 197.98C332.026 198.5 333.87 199.054 335.699 199.64L336.309 197.735C334.457 197.142 332.589 196.581 330.708 196.054L330.169 197.98ZM348.692 204.447C350.469 205.196 352.229 205.976 353.971 206.787L354.815 204.973C353.05 204.152 351.268 203.362 349.469 202.604L348.692 204.447ZM366.262 213.181C367.096 213.663 367.924 214.152 368.748 214.648L369.78 212.935C368.946 212.432 368.107 211.937 367.262 211.449L366.262 213.181ZM370.149 214.259C370.54 213.518 370.937 212.78 371.34 212.046L369.587 211.084C369.179 211.827 368.777 212.574 368.38 213.324L370.149 214.259ZM377.542 201.711C378.458 200.309 379.397 198.922 380.356 197.55L378.718 196.404C377.746 197.792 376.796 199.197 375.868 200.617L377.542 201.711ZM387.639 187.946C388.701 186.651 389.784 185.373 390.886 184.113L389.38 182.797C388.264 184.073 387.168 185.367 386.092 186.678L387.639 187.946ZM399.162 175.35C400.357 174.177 401.571 173.023 402.802 171.889L401.448 170.417C400.2 171.566 398.971 172.734 397.761 173.922L399.162 175.35ZM411.974 164.068C413.288 163.031 414.619 162.014 415.966 161.019L414.778 159.41C413.414 160.418 412.066 161.447 410.735 162.497L411.974 164.068ZM425.929 154.234C427.346 153.346 428.779 152.479 430.227 151.636L429.22 149.908C427.754 150.762 426.303 151.64 424.867 152.539L425.929 154.234ZM440.867 145.97C442.372 145.241 443.891 144.536 445.422 143.854L444.609 142.027C443.058 142.717 441.52 143.432 439.995 144.17L440.867 145.97ZM456.613 139.382C458.188 138.822 459.775 138.286 461.373 137.776L460.764 135.871C459.145 136.388 457.538 136.93 455.943 137.498L456.613 139.382ZM472.984 134.552C474.61 134.168 476.246 133.809 477.891 133.475L477.493 131.515C475.827 131.853 474.171 132.217 472.524 132.606L472.984 134.552ZM489.785 131.536C491.442 131.331 493.107 131.151 494.78 130.998L494.597 129.006C492.903 129.161 491.217 129.343 489.54 129.551L489.785 131.536ZM506.816 130.354C507.653 130.341 508.493 130.334 509.333 130.334V128.334C508.482 128.334 507.632 128.341 506.784 128.354L506.816 130.354ZM509.333 130.334C510.146 130.334 510.957 130.34 511.766 130.352L511.797 128.353C510.977 128.34 510.156 128.334 509.333 128.334V130.334ZM523.379 130.952C524.993 131.095 526.6 131.262 528.2 131.453L528.437 129.468C526.817 129.274 525.19 129.105 523.555 128.96L523.379 130.952ZM539.684 133.259C541.274 133.569 542.855 133.904 544.428 134.262L544.872 132.312C543.28 131.949 541.678 131.611 540.068 131.296L539.684 133.259ZM555.657 137.264C557.204 137.74 558.742 138.239 560.269 138.762L560.916 136.869C559.37 136.34 557.812 135.835 556.245 135.352L555.657 137.264ZM571.121 142.93C572.609 143.566 574.085 144.224 575.549 144.904L576.391 143.091C574.909 142.402 573.414 141.735 571.907 141.091L571.121 142.93ZM585.905 150.191C587.316 150.979 588.714 151.788 590.099 152.618L591.127 150.903C589.725 150.062 588.309 149.243 586.879 148.445L585.905 150.191ZM599.846 158.961C601.167 159.891 602.473 160.842 603.764 161.812L604.965 160.213C603.658 159.231 602.336 158.268 600.998 157.326L599.846 158.961ZM612.797 169.136C614.014 170.199 615.214 171.28 616.398 172.38L617.759 170.915C616.561 169.801 615.345 168.706 614.113 167.63L612.797 169.136ZM624.621 180.603C625.72 181.786 626.802 182.986 627.865 184.203L629.371 182.887C628.294 181.655 627.199 180.44 626.086 179.242L624.621 180.603ZM635.189 193.237C636.159 194.527 637.109 195.833 638.04 197.154L639.675 196.003C638.732 194.665 637.77 193.342 636.788 192.035L635.189 193.237ZM644.383 206.902C645.212 208.286 646.021 209.685 646.809 211.096L648.556 210.121C647.758 208.692 646.938 207.276 646.098 205.874L644.383 206.902ZM652.096 221.452C652.776 222.916 653.435 224.392 654.071 225.88L655.91 225.094C655.266 223.587 654.599 222.092 653.91 220.609L652.096 221.452ZM658.239 236.731C658.761 238.259 659.261 239.796 659.737 241.344L661.648 240.756C661.166 239.188 660.66 237.631 660.131 236.084L658.239 236.731ZM662.738 252.573C663.097 254.145 663.431 255.727 663.742 257.316L665.705 256.933C665.39 255.323 665.051 253.721 664.688 252.129L662.738 252.573ZM665.547 268.801C665.738 270.4 665.906 272.007 666.048 273.622L668.041 273.445C667.896 271.811 667.727 270.183 667.533 268.563L665.547 268.801ZM666.648 285.234C666.661 286.044 666.667 286.855 666.667 287.667H668.667C668.667 286.845 668.66 286.024 668.648 285.204L666.648 285.234ZM666.667 287.667C666.667 288.48 666.661 289.291 666.648 290.1L668.648 290.131C668.66 289.311 668.667 288.49 668.667 287.667H666.667ZM666.048 301.713C665.906 303.327 665.738 304.934 665.547 306.534L667.533 306.771C667.727 305.151 667.896 303.524 668.041 301.889L666.048 301.713ZM663.742 318.018C663.431 319.608 663.097 321.189 662.738 322.762L664.688 323.206C665.051 321.613 665.39 320.012 665.705 318.402L663.742 318.018ZM659.737 333.991C659.261 335.538 658.761 337.076 658.239 338.603L660.131 339.25C660.66 337.704 661.166 336.146 661.648 334.579L659.737 333.991ZM654.071 349.455C653.435 350.943 652.776 352.419 652.096 353.883L653.91 354.725C654.599 353.243 655.266 351.748 655.91 350.241L654.071 349.455ZM646.809 364.239C646.021 365.65 645.212 367.048 644.383 368.433L646.098 369.461C646.938 368.059 647.758 366.643 648.556 365.213L646.809 364.239ZM638.04 378.18C637.109 379.501 636.159 380.807 635.189 382.098L636.788 383.299C637.77 381.992 638.732 380.67 639.675 379.332L638.04 378.18ZM627.865 391.131C626.802 392.348 625.72 393.548 624.621 394.732L626.086 396.093C627.199 394.895 628.294 393.679 629.371 392.447L627.865 391.131ZM616.398 402.955C615.214 404.054 614.014 405.136 612.797 406.199L614.113 407.705C615.345 406.628 616.561 405.533 617.759 404.42L616.398 402.955ZM603.764 413.523C602.473 414.493 601.167 415.443 599.846 416.374L600.998 418.009C602.336 417.066 603.658 416.104 604.965 415.122L603.764 413.523ZM590.099 422.717C588.714 423.546 587.316 424.355 585.905 425.143L586.879 426.89C588.309 426.092 589.725 425.272 591.127 424.432L590.099 422.717ZM575.549 430.43C574.085 431.11 572.609 431.769 571.121 432.405L571.907 434.244C573.414 433.6 574.909 432.933 576.391 432.244L575.549 430.43ZM560.269 436.573C558.742 437.095 557.204 437.595 555.657 438.071L556.245 439.982C557.812 439.5 559.37 438.994 560.916 438.465L560.269 436.573ZM544.428 441.072C542.855 441.431 541.274 441.765 539.684 442.076L540.068 444.039C541.678 443.724 543.28 443.385 544.872 443.022L544.428 441.072ZM528.2 443.881C526.6 444.072 524.993 444.24 523.379 444.382L523.555 446.375C525.19 446.23 526.817 446.061 528.437 445.867L528.2 443.881ZM511.767 444.982C510.957 444.995 510.146 445.001 509.333 445.001V447.001C510.156 447.001 510.977 446.994 511.797 446.982L511.767 444.982ZM509.333 445.001C508.496 445.001 507.661 444.994 506.827 444.981L506.796 446.981C507.64 446.994 508.486 447.001 509.333 447.001V445.001ZM494.82 444.339C493.152 444.186 491.491 444.008 489.838 443.803L489.593 445.788C491.267 445.995 492.948 446.176 494.638 446.331L494.82 444.339ZM477.971 441.871C476.33 441.539 474.699 441.181 473.077 440.798L472.618 442.745C474.26 443.133 475.913 443.495 477.574 443.831L477.971 441.871ZM461.492 437.589C459.898 437.08 458.314 436.547 456.743 435.99L456.074 437.874C457.666 438.439 459.269 438.979 460.884 439.494L461.492 437.589ZM445.574 431.538C444.046 430.859 442.53 430.157 441.028 429.432L440.159 431.233C441.68 431.968 443.215 432.679 444.763 433.366L445.574 431.538ZM430.409 423.795C429.686 423.376 428.967 422.951 428.252 422.52L427.22 424.233C427.944 424.669 428.672 425.1 429.404 425.525L430.409 423.795ZM426.852 422.909C426.461 423.65 426.063 424.388 425.66 425.121L427.413 426.084C427.821 425.341 428.224 424.594 428.62 423.844L426.852 422.909ZM419.459 435.456C418.542 436.859 417.604 438.246 416.644 439.617L418.283 440.764C419.255 439.375 420.205 437.971 421.133 436.55L419.459 435.456ZM409.362 449.221C408.3 450.516 407.217 451.794 406.115 453.054L407.62 454.371C408.736 453.095 409.833 451.801 410.908 450.49L409.362 449.221ZM397.839 461.818C396.644 462.991 395.43 464.145 394.198 465.279L395.553 466.75C396.8 465.602 398.03 464.433 399.24 463.246L397.839 461.818ZM385.027 473.1C383.713 474.137 382.382 475.153 381.034 476.148L382.222 477.757C383.587 476.749 384.935 475.72 386.266 474.67L385.027 473.1ZM371.072 482.934C369.654 483.822 368.221 484.688 366.773 485.532L367.781 487.26C369.247 486.405 370.698 485.528 372.134 484.629L371.072 482.934ZM356.134 491.198C354.629 491.926 353.11 492.632 351.579 493.313L352.392 495.141C353.943 494.45 355.481 493.736 357.005 492.998L356.134 491.198ZM340.388 497.786C338.812 498.346 337.226 498.881 335.628 499.392L336.237 501.297C337.855 500.78 339.462 500.237 341.057 499.67L340.388 497.786ZM324.016 502.615C322.39 503 320.755 503.359 319.11 503.693L319.507 505.653C321.173 505.315 322.83 504.951 324.476 504.562L324.016 502.615ZM307.215 505.632C305.558 505.837 303.893 506.017 302.221 506.17L302.404 508.162C304.097 508.006 305.783 507.824 307.461 507.617L307.215 505.632ZM290.185 506.814C289.347 506.827 288.508 506.834 287.667 506.834V508.834C288.519 508.834 289.368 508.827 290.216 508.814L290.185 506.814ZM287.667 506.834C286.855 506.834 286.044 506.828 285.234 506.815L285.204 508.815C286.024 508.827 286.845 508.834 287.667 508.834V506.834ZM273.622 506.215C272.008 506.073 270.4 505.905 268.801 505.714L268.563 507.7C270.183 507.894 271.811 508.063 273.445 508.208L273.622 506.215ZM257.316 503.909C255.727 503.598 254.145 503.264 252.573 502.905L252.129 504.855C253.721 505.218 255.323 505.557 256.933 505.872L257.316 503.909ZM241.344 499.904C239.796 499.428 238.259 498.928 236.732 498.406L236.084 500.298C237.631 500.827 239.188 501.333 240.756 501.815L241.344 499.904ZM225.88 494.238C224.392 493.602 222.916 492.943 221.452 492.263L220.609 494.077C222.092 494.766 223.587 495.433 225.094 496.077L225.88 494.238ZM211.096 486.976C209.685 486.188 208.286 485.379 206.902 484.55L205.874 486.265C207.276 487.105 208.692 487.925 210.121 488.723L211.096 486.976ZM197.154 478.207C195.834 477.276 194.528 476.326 193.237 475.356L192.035 476.955C193.342 477.937 194.665 478.899 196.003 479.842L197.154 478.207ZM184.203 468.032C182.986 466.969 181.786 465.887 180.603 464.788L179.242 466.253C180.44 467.366 181.655 468.461 182.887 469.538L184.203 468.032ZM172.38 456.565C171.28 455.381 170.199 454.181 169.136 452.964L167.63 454.28C168.706 455.512 169.801 456.728 170.915 457.926L172.38 456.565ZM161.812 443.931C160.842 442.64 159.892 441.334 158.961 440.013L157.326 441.165C158.268 442.503 159.231 443.825 160.213 445.132L161.812 443.931ZM152.618 430.266C151.788 428.881 150.979 427.483 150.191 426.072L148.445 427.046C149.243 428.476 150.062 429.892 150.903 431.294L152.618 430.266ZM144.904 415.716C144.224 414.252 143.566 412.776 142.93 411.288L141.091 412.074C141.735 413.581 142.402 415.076 143.091 416.558L144.904 415.716ZM138.762 400.436C138.239 398.909 137.74 397.371 137.264 395.824L135.352 396.412C135.835 397.979 136.34 399.537 136.869 401.083L138.762 400.436ZM134.262 384.595C133.904 383.022 133.569 381.441 133.259 379.851L131.296 380.235C131.611 381.845 131.949 383.447 132.312 385.039L134.262 384.595ZM131.453 368.367C131.262 366.767 131.095 365.16 130.952 363.546L128.96 363.722C129.105 365.357 129.274 366.984 129.468 368.604L131.453 368.367ZM130.352 351.934C130.34 351.124 130.334 350.313 130.334 349.5H128.334C128.334 350.323 128.34 351.144 128.353 351.964L130.352 351.934ZM130.334 349.5C130.334 348.664 130.341 347.829 130.354 346.996L128.354 346.964C128.341 347.808 128.334 348.653 128.334 349.5H130.334ZM130.996 334.994C131.148 333.326 131.327 331.666 131.532 330.014L129.547 329.768C129.34 331.441 129.159 333.123 129.004 334.811L130.996 334.994ZM133.463 318.152C133.629 317.333 133.801 316.516 133.979 315.701L132.026 315.273C131.845 316.098 131.671 316.925 131.503 317.755L133.463 318.152Z" fill="white" mask="url(#path-1-outside-1_781_155)"/>
</svg>
