<svg width="20" height="20" viewBox="0 0 20 20" fill="none" xmlns="http://www.w3.org/2000/svg">
<path d="M0.0626121 6.66367C0.616449 2.47834 4.29595 -0.427267 8.45104 0.0515835C13.3112 0.612146 16.4751 5.70553 14.5604 10.2542C14.4219 10.5832 14.3221 10.9294 14.1665 11.2492C14.0303 11.5304 13.8413 11.7856 13.672 12.0584C13.7107 12.1002 13.7485 12.1441 13.7894 12.185C15.2966 13.6804 16.8043 15.1758 18.312 16.6708C18.7484 17.1039 19.1898 17.5323 19.621 17.9707C20.2152 18.5748 20.0935 19.4964 19.3766 19.8676C18.8926 20.1181 18.3757 20.0117 17.9208 19.5606C16.4069 18.0608 14.8927 16.5618 13.3837 15.0576C12.9283 14.6038 12.4883 14.1346 12.0435 13.6747C11.9521 13.7331 11.909 13.7594 11.8672 13.788C10.4167 14.7734 8.81543 15.2057 7.06513 15.1099C2.80191 14.8766 -0.498258 10.8986 0.0621722 6.66324L0.0626121 6.66367ZM7.56842 14.0028C11.1253 14.0028 14.0087 11.1209 14.0087 7.56602C14.0087 4.01111 11.1253 1.12878 7.56842 1.12878C4.01156 1.12878 1.12809 4.01067 1.12809 7.56558C1.12809 11.1205 4.01156 14.0024 7.56842 14.0024V14.0028Z" fill="white"/>
</svg>
