<svg xmlns="http://www.w3.org/2000/svg" width="44" height="131" viewBox="0 0 44 131" fill="none">
  <ellipse cx="3.11735" cy="3.09524" rx="3.11735" ry="3.09524" transform="matrix(1 0 0 -1 31.1735 124.31)" fill="white"/>
  <ellipse cx="34.2909" cy="9.78571" rx="3.11735" ry="3.09523" fill="white"/>
  <ellipse cx="3.11735" cy="3.09524" rx="3.11735" ry="3.09524" transform="matrix(1 0 0 -1 37.4082 130.5)" fill="white"/>
  <ellipse cx="40.5256" cy="3.59524" rx="3.11735" ry="3.09524" fill="white"/>
  <ellipse cx="3.11735" cy="3.09524" rx="3.11735" ry="3.09524" transform="matrix(1 0 0 -1 24.9388 118.119)" fill="white"/>
  <ellipse cx="3.11735" cy="3.09524" rx="3.11735" ry="3.09524" transform="matrix(1 0 0 -1 24.9388 111.929)" fill="white"/>
  <ellipse cx="3.11735" cy="3.09524" rx="3.11735" ry="3.09524" transform="matrix(1 0 0 -1 24.9388 31.4524)" fill="white"/>
  <ellipse cx="3.11735" cy="3.09524" rx="3.11735" ry="3.09524" transform="matrix(1 0 0 -1 18.7041 99.5476)" fill="white"/>
  <ellipse cx="3.11735" cy="3.09524" rx="3.11735" ry="3.09524" transform="matrix(1 0 0 -1 18.7041 43.8333)" fill="white"/>
  <ellipse cx="3.11735" cy="3.09524" rx="3.11735" ry="3.09524" transform="matrix(1 0 0 -1 12.4694 87.1667)" fill="white"/>
  <ellipse cx="3.11735" cy="3.09524" rx="3.11735" ry="3.09524" transform="matrix(1 0 0 -1 18.7041 111.929)" fill="white"/>
  <ellipse cx="3.11735" cy="3.09524" rx="3.11735" ry="3.09524" transform="matrix(1 0 0 -1 18.7041 31.4524)" fill="white"/>
  <ellipse cx="3.11735" cy="3.09524" rx="3.11735" ry="3.09524" transform="matrix(1 0 0 -1 12.4694 31.4524)" fill="white"/>
  <ellipse cx="3.11735" cy="3.09524" rx="3.11735" ry="3.09524" transform="matrix(1 0 0 -1 12.4694 99.5476)" fill="white"/>
  <ellipse cx="3.11735" cy="3.09524" rx="3.11735" ry="3.09524" transform="matrix(1 0 0 -1 12.4694 43.8333)" fill="white"/>
  <ellipse cx="3.11735" cy="3.09524" rx="3.11735" ry="3.09524" transform="matrix(1 0 0 -1 6.23468 43.8333)" fill="white"/>
  <ellipse cx="3.11735" cy="3.09524" rx="3.11735" ry="3.09524" transform="matrix(1 0 0 -1 6.23468 87.1667)" fill="white"/>
  <ellipse cx="3.11735" cy="3.09524" rx="3.11735" ry="3.09524" transform="matrix(1 0 0 -1 24.9388 105.738)" fill="white"/>
  <ellipse cx="3.11735" cy="3.09524" rx="3.11735" ry="3.09524" transform="matrix(1 0 0 -1 24.9388 25.2619)" fill="white"/>
  <ellipse cx="3.11735" cy="3.09524" rx="3.11735" ry="3.09524" transform="matrix(1 0 0 -1 24.9388 19.0714)" fill="white"/>
  <ellipse cx="3.11735" cy="3.09524" rx="3.11735" ry="3.09524" transform="matrix(1 0 0 -1 18.7041 93.3571)" fill="white"/>
  <ellipse cx="3.11735" cy="3.09523" rx="3.11735" ry="3.09523" transform="matrix(1 0 0 -1 18.7041 37.6429)" fill="white"/>
  <ellipse cx="3.11735" cy="3.09524" rx="3.11735" ry="3.09524" transform="matrix(1 0 0 -1 12.4694 80.9762)" fill="white"/>
  <ellipse cx="3.11735" cy="3.09524" rx="3.11735" ry="3.09524" transform="matrix(1 0 0 -1 12.4694 74.7857)" fill="white"/>
  <ellipse cx="3.11735" cy="3.09524" rx="3.11735" ry="3.09524" transform="matrix(1 0 0 -1 12.4694 68.5952)" fill="white"/>
  <ellipse cx="3.11735" cy="3.09524" rx="3.11735" ry="3.09524" transform="matrix(1 0 0 -1 12.4694 56.2143)" fill="white"/>
  <ellipse cx="3.11735" cy="3.09524" rx="3.11735" ry="3.09524" transform="matrix(1 0 0 -1 12.4694 62.4048)" fill="white"/>
  <ellipse cx="3.11735" cy="3.09524" rx="3.11735" ry="3.09524" transform="matrix(1 0 0 -1 12.4694 50.0238)" fill="white"/>
  <ellipse cx="3.11735" cy="3.09524" rx="3.11735" ry="3.09524" transform="matrix(1 0 0 -1 18.7041 105.738)" fill="white"/>
  <ellipse cx="3.11735" cy="3.09524" rx="3.11735" ry="3.09524" transform="matrix(1 0 0 -1 12.4694 105.738)" fill="white"/>
  <ellipse cx="3.11735" cy="3.09524" rx="3.11735" ry="3.09524" transform="matrix(1 0 0 -1 18.7041 25.2619)" fill="white"/>
  <ellipse cx="3.11735" cy="3.09524" rx="3.11735" ry="3.09524" transform="matrix(1 0 0 -1 12.4694 93.3571)" fill="white"/>
  <ellipse cx="3.11735" cy="3.09524" rx="3.11735" ry="3.09524" transform="matrix(1 0 0 -1 6.23468 93.3571)" fill="white"/>
  <ellipse cx="3.11735" cy="3.09523" rx="3.11735" ry="3.09523" transform="matrix(1 0 0 -1 12.4694 37.6429)" fill="white"/>
  <ellipse cx="3.11735" cy="3.09524" rx="3.11735" ry="3.09524" transform="matrix(1 0 0 -1 6.23468 80.9762)" fill="white"/>
  <ellipse cx="3.11735" cy="3.09524" rx="3.11735" ry="3.09524" transform="matrix(1 0 0 -1 0 80.9762)" fill="white"/>
  <ellipse cx="3.11735" cy="3.09524" rx="3.11735" ry="3.09524" transform="matrix(1 0 0 -1 6.23468 74.7857)" fill="white"/>
  <ellipse cx="3.11735" cy="3.09524" rx="3.11735" ry="3.09524" transform="matrix(1 0 0 -1 0 74.7857)" fill="white"/>
  <ellipse cx="3.11735" cy="3.09524" rx="3.11735" ry="3.09524" transform="matrix(1 0 0 -1 6.23468 68.5952)" fill="white"/>
  <ellipse cx="3.11735" cy="3.09524" rx="3.11735" ry="3.09524" transform="matrix(1 0 0 -1 6.23468 56.2143)" fill="white"/>
  <ellipse cx="3.11735" cy="3.09524" rx="3.11735" ry="3.09524" transform="matrix(1 0 0 -1 0 56.2143)" fill="white"/>
  <ellipse cx="3.11735" cy="3.09524" rx="3.11735" ry="3.09524" transform="matrix(1 0 0 -1 0 68.5952)" fill="white"/>
  <ellipse cx="3.11735" cy="3.09524" rx="3.11735" ry="3.09524" transform="matrix(1 0 0 -1 6.23468 62.4048)" fill="white"/>
  <ellipse cx="3.11735" cy="3.09524" rx="3.11735" ry="3.09524" transform="matrix(1 0 0 -1 6.23468 50.0238)" fill="white"/>
  <ellipse cx="3.11735" cy="3.09524" rx="3.11735" ry="3.09524" transform="matrix(1 0 0 -1 0 62.4048)" fill="white"/>
</svg>