<svg xmlns="http://www.w3.org/2000/svg" width="43" height="131" viewBox="0 0 43 131" fill="none">
  <ellipse cx="3.05102" cy="3.09524" rx="3.05102" ry="3.09524" transform="matrix(-1 0 0 1 12.4898 6.69048)" fill="white"/>
  <ellipse cx="9.43879" cy="121.214" rx="3.05102" ry="3.09523" transform="rotate(180 9.43879 121.214)" fill="white"/>
  <ellipse cx="3.05102" cy="3.09524" rx="3.05102" ry="3.09524" transform="matrix(-1 0 0 1 6.3877 0.5)" fill="white"/>
  <ellipse cx="3.33667" cy="127.405" rx="3.05102" ry="3.09524" transform="rotate(180 3.33667 127.405)" fill="white"/>
  <ellipse cx="3.05102" cy="3.09524" rx="3.05102" ry="3.09524" transform="matrix(-1 0 0 1 18.5918 12.881)" fill="white"/>
  <ellipse cx="3.05102" cy="3.09524" rx="3.05102" ry="3.09524" transform="matrix(-1 0 0 1 18.5918 19.0714)" fill="white"/>
  <ellipse cx="3.05102" cy="3.09524" rx="3.05102" ry="3.09524" transform="matrix(-1 0 0 1 18.5918 99.5476)" fill="white"/>
  <ellipse cx="3.05102" cy="3.09524" rx="3.05102" ry="3.09524" transform="matrix(-1 0 0 1 24.6938 31.4524)" fill="white"/>
  <ellipse cx="3.05102" cy="3.09524" rx="3.05102" ry="3.09524" transform="matrix(-1 0 0 1 24.6938 87.1667)" fill="white"/>
  <ellipse cx="3.05102" cy="3.09524" rx="3.05102" ry="3.09524" transform="matrix(-1 0 0 1 30.7959 43.8333)" fill="white"/>
  <ellipse cx="3.05102" cy="3.09524" rx="3.05102" ry="3.09524" transform="matrix(-1 0 0 1 24.6938 19.0714)" fill="white"/>
  <ellipse cx="3.05102" cy="3.09524" rx="3.05102" ry="3.09524" transform="matrix(-1 0 0 1 24.6938 99.5476)" fill="white"/>
  <ellipse cx="3.05102" cy="3.09524" rx="3.05102" ry="3.09524" transform="matrix(-1 0 0 1 30.7959 99.5476)" fill="white"/>
  <ellipse cx="3.05102" cy="3.09524" rx="3.05102" ry="3.09524" transform="matrix(-1 0 0 1 30.7959 31.4524)" fill="white"/>
  <ellipse cx="3.05102" cy="3.09524" rx="3.05102" ry="3.09524" transform="matrix(-1 0 0 1 30.7959 87.1667)" fill="white"/>
  <ellipse cx="3.05102" cy="3.09524" rx="3.05102" ry="3.09524" transform="matrix(-1 0 0 1 36.8979 87.1667)" fill="white"/>
  <ellipse cx="3.05102" cy="3.09524" rx="3.05102" ry="3.09524" transform="matrix(-1 0 0 1 36.8979 43.8333)" fill="white"/>
  <ellipse cx="3.05102" cy="3.09524" rx="3.05102" ry="3.09524" transform="matrix(-1 0 0 1 18.5918 25.2619)" fill="white"/>
  <ellipse cx="3.05102" cy="3.09524" rx="3.05102" ry="3.09524" transform="matrix(-1 0 0 1 18.5918 105.738)" fill="white"/>
  <ellipse cx="3.05102" cy="3.09524" rx="3.05102" ry="3.09524" transform="matrix(-1 0 0 1 18.5918 111.929)" fill="white"/>
  <ellipse cx="3.05102" cy="3.09524" rx="3.05102" ry="3.09524" transform="matrix(-1 0 0 1 24.6938 37.6429)" fill="white"/>
  <ellipse cx="3.05102" cy="3.09523" rx="3.05102" ry="3.09523" transform="matrix(-1 0 0 1 24.6938 93.3571)" fill="white"/>
  <ellipse cx="3.05102" cy="3.09524" rx="3.05102" ry="3.09524" transform="matrix(-1 0 0 1 30.7959 50.0238)" fill="white"/>
  <ellipse cx="3.05102" cy="3.09524" rx="3.05102" ry="3.09524" transform="matrix(-1 0 0 1 30.7959 56.2143)" fill="white"/>
  <ellipse cx="3.05102" cy="3.09524" rx="3.05102" ry="3.09524" transform="matrix(-1 0 0 1 30.7959 62.4048)" fill="white"/>
  <ellipse cx="3.05102" cy="3.09524" rx="3.05102" ry="3.09524" transform="matrix(-1 0 0 1 30.7959 74.7857)" fill="white"/>
  <ellipse cx="3.05102" cy="3.09524" rx="3.05102" ry="3.09524" transform="matrix(-1 0 0 1 30.7959 68.5952)" fill="white"/>
  <ellipse cx="3.05102" cy="3.09524" rx="3.05102" ry="3.09524" transform="matrix(-1 0 0 1 30.7959 80.9762)" fill="white"/>
  <ellipse cx="3.05102" cy="3.09524" rx="3.05102" ry="3.09524" transform="matrix(-1 0 0 1 24.6938 25.2619)" fill="white"/>
  <ellipse cx="3.05102" cy="3.09524" rx="3.05102" ry="3.09524" transform="matrix(-1 0 0 1 30.7959 25.2619)" fill="white"/>
  <ellipse cx="3.05102" cy="3.09524" rx="3.05102" ry="3.09524" transform="matrix(-1 0 0 1 24.6938 105.738)" fill="white"/>
  <ellipse cx="3.05102" cy="3.09524" rx="3.05102" ry="3.09524" transform="matrix(-1 0 0 1 30.7959 37.6429)" fill="white"/>
  <ellipse cx="3.05102" cy="3.09524" rx="3.05102" ry="3.09524" transform="matrix(-1 0 0 1 36.8979 37.6429)" fill="white"/>
  <ellipse cx="3.05102" cy="3.09523" rx="3.05102" ry="3.09523" transform="matrix(-1 0 0 1 30.7959 93.3571)" fill="white"/>
  <ellipse cx="3.05102" cy="3.09524" rx="3.05102" ry="3.09524" transform="matrix(-1 0 0 1 36.8979 50.0238)" fill="white"/>
  <ellipse cx="3.05102" cy="3.09524" rx="3.05102" ry="3.09524" transform="matrix(-1 0 0 1 43 50.0238)" fill="white"/>
  <ellipse cx="3.05102" cy="3.09524" rx="3.05102" ry="3.09524" transform="matrix(-1 0 0 1 36.8979 56.2143)" fill="white"/>
  <ellipse cx="3.05102" cy="3.09524" rx="3.05102" ry="3.09524" transform="matrix(-1 0 0 1 43 56.2143)" fill="white"/>
  <ellipse cx="3.05102" cy="3.09524" rx="3.05102" ry="3.09524" transform="matrix(-1 0 0 1 36.8979 62.4048)" fill="white"/>
  <ellipse cx="3.05102" cy="3.09524" rx="3.05102" ry="3.09524" transform="matrix(-1 0 0 1 36.8979 74.7857)" fill="white"/>
  <ellipse cx="3.05102" cy="3.09524" rx="3.05102" ry="3.09524" transform="matrix(-1 0 0 1 43 74.7857)" fill="white"/>
  <ellipse cx="3.05102" cy="3.09524" rx="3.05102" ry="3.09524" transform="matrix(-1 0 0 1 43 62.4048)" fill="white"/>
  <ellipse cx="3.05102" cy="3.09524" rx="3.05102" ry="3.09524" transform="matrix(-1 0 0 1 36.8979 68.5952)" fill="white"/>
  <ellipse cx="3.05102" cy="3.09524" rx="3.05102" ry="3.09524" transform="matrix(-1 0 0 1 36.8979 80.9762)" fill="white"/>
  <ellipse cx="3.05102" cy="3.09524" rx="3.05102" ry="3.09524" transform="matrix(-1 0 0 1 43 68.5952)" fill="white"/>
</svg>